<svg xmlns="http://www.w3.org/2000/svg" width="43.75" height="87.5" viewBox="0 0 43.75 87.5">
  <path id="Path_1" data-name="Path 1" d="M34.375-81.25a9.041,9.041,0,0,1,6.641,2.734,9.041,9.041,0,0,1,2.734,6.641V-25A30.092,30.092,0,0,1,34.57-2.93,30.092,30.092,0,0,1,12.5,6.25H10.938a4.52,4.52,0,0,1-3.32-1.367A4.52,4.52,0,0,1,6.25,1.563V-7.812a4.52,4.52,0,0,1,1.367-3.32,4.52,4.52,0,0,1,3.32-1.367H12.5a12.013,12.013,0,0,0,8.789-3.711A12.013,12.013,0,0,0,25-25V-37.5H9.375a9.041,9.041,0,0,1-6.641-2.734A9.041,9.041,0,0,1,0-46.875v-25a9.041,9.041,0,0,1,2.734-6.641A9.041,9.041,0,0,1,9.375-81.25Z" transform="translate(0 81.25)" fill="#da9f41"/>
</svg>
