<svg xmlns="http://www.w3.org/2000/svg" xmlns:xlink="http://www.w3.org/1999/xlink" width="151" height="39" viewBox="0 0 151 39">
  <defs>
    <clipPath id="clip-colorlib">
      <rect width="151" height="39"/>
    </clipPath>
  </defs>
  <g id="colorlib" clip-path="url(#clip-colorlib)">
    <g id="Group_3" data-name="Group 3" transform="translate(-4112.941 -1403.097)">
      <g id="l24542d3cxJ8CMmoAjB9wmg" transform="translate(4114.332 1404.668)">
        <g id="Group_2" data-name="Group 2" transform="translate(0 0)">
          <path id="pESXhjv4m" d="M66.766,1457.187a10.147,10.147,0,0,1-5.028-3c-2.694-2.713-3.738-5.56-3.738-10.076,0-4.535,1.025-7.324,3.738-10.095a9.868,9.868,0,0,1,5.123-3,17.5,17.5,0,0,1,6.129,0,9.15,9.15,0,0,1,7.153,7.647l.133.8H77.032l-.228-.8a8.494,8.494,0,0,0-2.144-3.681c-2.011-1.727-5.711-2.049-8.425-.721a10.122,10.122,0,0,0-4.687,6.432,18.536,18.536,0,0,0,.095,7,9.792,9.792,0,0,0,4.212,6.072,9.216,9.216,0,0,0,4.839.968,7.524,7.524,0,0,0,6.319-6.015l.247-1.1h3.207l-.133.816a14.485,14.485,0,0,1-1.935,4.744,9.668,9.668,0,0,1-5.692,4.023A16.445,16.445,0,0,1,66.766,1457.187Z" transform="translate(-58 -1421.609)" fill="#2d2d2c" stroke="#2d2d2c" stroke-width="1"/>
          <path id="p15Mn2Brwp" d="M1376.766,1456.451a10.148,10.148,0,0,1-5.028-3c-2.694-2.713-3.738-5.56-3.738-10.076,0-4.535,1.025-7.324,3.738-10.094A10.21,10.21,0,0,1,1379.9,1430a11.1,11.1,0,0,1,5.673,1.29c4.25,2.239,6.641,7.191,6.319,13.112a13.376,13.376,0,0,1-1.556,6.034,11.187,11.187,0,0,1-7.324,6.034A18.137,18.137,0,0,1,1376.766,1456.451Zm4.763-2.543c3.15-.588,5.5-2.941,6.66-6.641a17.908,17.908,0,0,0-.095-8.1c-1.214-3.662-3.605-5.844-6.964-6.375a8.122,8.122,0,0,0-8.634,4.687,11.384,11.384,0,0,0-1.233,5.825c0,3.605.911,6.3,2.827,8.292A8,8,0,0,0,1381.529,1453.908Z" transform="translate(-1343.143 -1420.873)" fill="#2d2d2c" stroke="#2d2d2c" stroke-width="1"/>
          <path id="p3GIzfsFM" d="M3216.767,1456.451a10.147,10.147,0,0,1-5.028-3c-2.695-2.713-3.738-5.56-3.738-10.076,0-4.535,1.025-7.324,3.738-10.094A10.209,10.209,0,0,1,3219.9,1430a11.1,11.1,0,0,1,5.674,1.29c4.25,2.239,6.641,7.191,6.318,13.112a13.375,13.375,0,0,1-1.556,6.034,11.188,11.188,0,0,1-7.324,6.034A18.137,18.137,0,0,1,3216.767,1456.451Zm4.762-2.543c3.15-.588,5.5-2.941,6.66-6.641a17.908,17.908,0,0,0-.095-8.1c-1.214-3.662-3.6-5.844-6.964-6.375a8.122,8.122,0,0,0-8.634,4.687,11.384,11.384,0,0,0-1.233,5.825c0,3.605.911,6.3,2.827,8.292A8,8,0,0,0,3221.529,1453.908Z" transform="translate(-3148.229 -1420.873)" fill="#2d2d2c" stroke="#2d2d2c" stroke-width="1"/>
          <path id="pS6MbE3JB" d="M6349.013,984.521a9.388,9.388,0,0,1-5.408-3.947l-.569-.892v4.44H6340l.038-17.495.057-17.514,1.556-.057,1.575-.057.038,7.078.057,7.078.646-1.006a9.083,9.083,0,0,1,5.351-3.738,15.315,15.315,0,0,1,5.73,0,10.394,10.394,0,0,1,6.85,5.825,14.677,14.677,0,0,1,1.5,7.457,14.491,14.491,0,0,1-1.594,7.286,10.481,10.481,0,0,1-6.831,5.617A14.951,14.951,0,0,1,6349.013,984.521Zm5.863-2.884c2.3-.854,4.307-3.51,4.953-6.546a24.171,24.171,0,0,0,.019-7.116c-.588-2.789-2.334-5.351-4.326-6.357A8.506,8.506,0,0,0,6346,963.25a11.516,11.516,0,0,0-2.41,4.839,22.329,22.329,0,0,0,.076,7.116c1.006,3.795,3.074,6.015,6.262,6.736A9.315,9.315,0,0,0,6354.876,981.637Z" transform="translate(-6220.8 -949)" fill="#2d2d2c" stroke="#2d2d2c" stroke-width="1"/>
          <path id="pRV4bsLPo" d="M2830,977.457V960h3.226v34.914H2830Z" transform="translate(-2777.402 -959.791)" fill="#2d2d2c" stroke="#2d2d2c" stroke-width="1"/>
          <path id="pvzJ6pteR" d="M4670.038,1462.96l.057-12.675h2.846l.057,2.751.057,2.751.531-.93A9.313,9.313,0,0,1,4681.5,1450h1.233l-.057,1.575-.057,1.556-1.423.133a8.273,8.273,0,0,0-6.926,4.516c-.93,1.841-1.044,2.884-1.044,10.683v7.154H4670Z" transform="translate(-4582.488 -1440.494)" fill="#2d2d2c" stroke="#2d2d2c" stroke-width="1"/>
          <path id="pSkOiqnv7" d="M5450,977.457V960h3.226v34.914H5450Z" transform="translate(-5347.688 -959.791)" fill="#2d2d2c" stroke="#2d2d2c" stroke-width="1"/>
          <path id="pc9WDWPDt" d="M5890.038,1471.789l.057-12.675,1.575-.057,1.556-.057v25.445H5890Z" transform="translate(-5779.339 -1449.323)" fill="#2d2d2c" stroke="#2d2d2c" stroke-width="1"/>
          <path id="pX5BWhvgI" d="M7680,2522.465V2520h4.174v4.929H7680Z" transform="translate(-7535.374 -2489.807)" fill="#2d2d2c" stroke="#2d2d2c" stroke-width="1"/>
          <path id="pJwJHaONs" d="M5889.057,951.637l.058-2.524,1.574-.057,1.556-.057v5.142H5889Z" transform="translate(-5778.358 -949)" fill="#2d2d2c" stroke="#2d2d2c" stroke-width="1"/>
        </g>
      </g>
    </g>
  </g>
</svg>
