<svg width="18" height="20" viewBox="0 0 18 20" fill="none" xmlns="http://www.w3.org/2000/svg">
<g clip-path="url(#clip0_44_3)">
<path d="M14.9485 0.449157C14.3812 0.133854 12.7565 0.32937 10.8041 0.933816C7.38806 3.26899 4.50351 6.70979 4.30249 12.2352C4.26669 12.3674 3.92935 12.2159 3.86189 12.176C2.93938 10.4081 2.57313 8.54654 3.34418 5.86026C3.48738 5.62068 3.01786 5.32603 2.93387 5.41002C2.7659 5.578 2.06094 6.32977 1.59142 7.14075C-0.729987 11.1653 0.788705 16.3245 4.84911 18.5825C5.81455 19.12 6.87642 19.4621 7.97407 19.5892C9.07172 19.7163 10.1837 19.626 11.2464 19.3233C12.3091 19.0207 13.3018 18.5117 14.1679 17.8254C15.0339 17.1391 15.7562 16.289 16.2937 15.3235C18.9097 10.6394 16.4809 1.30557 14.9485 0.449157Z" fill="white"/>
</g>
<defs>
<clipPath id="clip0_44_3">
<rect width="18" height="20" fill="white"/>
</clipPath>
</defs>
</svg>
