<svg width="590" height="560" viewBox="0 0 590 560" fill="none" xmlns="http://www.w3.org/2000/svg">
<g clip-path="url(#clip0_31_183)">
<path d="M336.461 520C476.189 520 589.461 406.728 589.461 267C589.461 127.272 476.189 14 336.461 14C196.733 14 83.4609 127.272 83.4609 267C83.4609 406.728 196.733 520 336.461 520Z" fill="#FFBD3F"/>
<path d="M227.044 514.707C210.82 508.196 195.652 502.545 179.621 496.139C171.947 493.072 164.098 490.13 155.909 486.855C125.971 474.881 134.774 478.284 96.488 478.284C96.488 484.457 97.981 497.284 87.488 497.284H9.5C7.11589 497.275 4.83205 496.324 3.14622 494.638C1.46039 492.952 0.509218 490.668 0.5 488.284V309.305C0.5 298.926 20.511 301.305 24.5 301.305H55.5C49.449 275.33 53.133 237.438 59.7 213.522C62.117 204.722 69.583 174.322 80.492 174.322C86.608 174.322 91.492 176.922 91.492 183.322C91.492 194.763 68.602 219.066 74.466 289.338C75.344 299.871 74.607 299.988 77.675 301.126C79.401 301.602 81.2105 301.691 82.975 301.388C85.563 301.159 88.352 300.93 91.161 302.643C98.312 307 96.496 314.854 96.496 325.304H118.496V225.315C118.505 222.931 119.456 220.647 121.142 218.961C122.828 217.275 125.112 216.324 127.496 216.315H207.486V160.324C207.523 157.683 208.589 155.162 210.456 153.294C212.324 151.427 214.845 150.361 217.486 150.324H304.475C314.907 150.324 317.475 156.924 317.475 167.324V267.31H395.466C397.651 267.305 399.784 267.98 401.568 269.242C403.352 270.503 404.699 272.289 405.423 274.351C407.623 280.367 406.464 377.612 406.464 386.296C411.364 383.015 420.005 368.92 423.407 363.243C438.954 337.296 449.458 303.923 449.458 270.31C449.458 247.096 445.458 234.675 445.458 224.316C445.458 215.569 461.823 210.798 465.517 224.255C467.669 232.093 471.297 265.368 469.878 274.732C469.048 280.207 469.127 287.371 468.541 292.394C464.907 323.621 455.232 350.11 439.892 375.731C434.777 384.275 412.901 414.573 406.462 416.293V439.293C410.034 437.579 418.462 436.219 423.262 435.093C436.369 432.024 461.145 425.263 472.513 426.153C496.682 428.048 510.847 446.78 512.449 466.391V473.865C511.828 482.108 508.755 489.976 503.624 496.458C491.474 511.618 477.988 512.675 460.254 517.079L385.468 536.279C362.568 541.952 352.968 546.279 326.474 546.279C299.89 546.275 252.342 524.856 227.044 514.707ZM96.488 457.287H133.488C139.594 457.287 152.03 463.501 158.109 465.659C166.431 468.613 172.839 471.724 181.109 474.659C204.723 483.042 250.373 501.63 273.759 510.994C302.415 522.467 306.01 525.279 336.459 525.279C349.235 525.279 428.513 504.415 441.025 500.86C459.062 495.736 480.492 493.834 488.038 482.882C492.638 476.203 493.745 465.929 489.287 458.442C477.421 438.511 458.206 448.697 436.365 453.207C412.482 458.138 376.771 467.877 354.765 471.595C320.088 477.454 287.998 463.575 256.75 451.009L220.05 436.709C208.727 432.403 188.476 427.802 188.476 418.29C188.442 416.836 188.703 415.39 189.244 414.04C189.785 412.691 190.594 411.464 191.622 410.436C192.65 409.408 193.877 408.599 195.227 408.058C196.576 407.517 198.022 407.256 199.476 407.29C201.744 407.29 233.263 419.79 238.04 421.719C244.663 424.396 271.161 435.286 276.466 435.286C303.893 435.286 311.011 407.247 298.251 393.503C293.658 388.556 290.905 387.44 284.031 384.726C271.161 379.644 190.915 345.297 187.477 345.297H96.488V457.287ZM20.498 477.287H75.491V322.305H20.5L20.498 477.287ZM317.46 382.296C317.46 386.396 331.985 406.443 319.785 430.614C316.335 437.446 317.46 440.886 317.46 450.288C332.014 453.678 348.76 452.562 363.06 448.893C367.135 447.847 370.693 447.229 374.46 446.298C378.214 445.372 380.72 444.287 385.448 444.287V288.308H317.46V382.296ZM227.473 339.301C233.884 340.795 290.159 365.829 296.463 367.301V171.322H227.473V339.301ZM138.484 325.301H192.477C195.888 325.301 203.047 329.268 207.477 330.301V236.314H138.483L138.484 325.301ZM403.45 184.321C403.45 170.164 415.85 158.344 429.329 158.704C442.918 159.068 454.444 169.642 454.444 184.321C454.444 197.743 443.086 209.321 431.444 209.321C414.6 209.319 403.45 198.567 403.45 184.321ZM424.45 183.321C424.45 191.393 433.45 189.946 433.45 185.321C433.45 180.756 431.511 179.177 429.432 179.178C427.03 179.178 424.447 181.28 424.447 183.321H424.45ZM351.459 194.321C351.459 190.621 353.705 187.605 355.683 185.547L425.6 105.479C432.547 96.8 437.341 89.333 445.449 89.333C448.586 89.333 460.774 96.347 450.249 108.126L387.6 180.468C383.984 184.961 379.425 189.155 375.878 193.742C369.699 201.731 364.751 204.396 360.968 204.396C354.521 204.395 351.456 196.66 351.456 194.319L351.459 194.321ZM91.489 150.325C91.899 148.003 92.7134 145.772 93.895 143.732C98.795 137.248 112.486 140.071 112.486 149.326C112.486 156.87 107.393 160.254 102.223 160.254C96.9 160.25 91.489 156.66 91.489 150.325ZM351.1 123.684C348.059 118.328 348.456 115.284 348.456 109.33C348.456 92.797 371.55 77.045 390.183 92.601C397.915 99.056 398.449 105.221 398.449 114.329C398.449 127.394 385.926 137.057 373.035 137.057C364.827 137.056 356.468 133.138 351.1 123.684ZM369.453 115.328C371.696 115.851 371.753 116.328 374.453 116.328C378.3 116.328 382.302 107.328 372.453 107.328C367.672 107.331 368.746 112.292 369.454 115.329L369.453 115.328ZM118.485 119.328C118.485 111.411 138.059 99.259 143.685 95.528C200.528 57.805 265.309 49.002 330.1 70.695C351.779 77.954 339.862 92.332 332.461 92.332C329.837 92.332 294.19 79.332 260.47 79.332C214.17 79.332 171.479 97.539 136.817 126.658C134.297 128.962 131.049 130.31 127.638 130.468C122.506 130.469 118.486 126.556 118.486 119.329L118.485 119.328Z" fill="#1E3238"/>
</g>
<defs>
<clipPath id="clip0_31_183">
<rect width="590" height="560" fill="white"/>
</clipPath>
</defs>
</svg>
