<svg xmlns="http://www.w3.org/2000/svg" xmlns:xlink="http://www.w3.org/1999/xlink" width="722" height="512" viewBox="0 0 722 512">
  <defs>
    <clipPath id="clip-Web_1920_1">
      <rect width="722" height="512"/>
    </clipPath>
  </defs>
  <g id="Web_1920_1" data-name="Web 1920 – 1" fill="#262624" clip-path="url(#clip-Web_1920_1)">
    <g id="razor" transform="translate(209.641 511.813)">
      <path id="Path_1" data-name="Path 1" d="M32.228-510.9A40.628,40.628,0,0,0,12.01-499.99C-1.3-486.578-3.3-467.461,6.505-447.844c3,6.005,16.815,20.218,27.524,28.425,15.914,12.211,36.832,22.62,57.55,28.525l9.008,2.6.5,174.152c.4,142.524.8,174.752,1.9,178.055C109.5-16.868,124.608-3.657,143.925-.354c19.717,3.3,42.137-8.107,51.245-26.223,6.305-12.511,6.005-2.2,6.005-186.963V-382.087l4.3.7c5.6,1,13.111,3.9,17.115,6.606,6.005,4.1,10.509,12.711,10.609,20.218,0,4.5,2.2,9.208,4.9,10.709,6.005,3.2,54.948-1.5,105.192-10.109,72.663-12.411,147.429-32.829,162.642-44.339,6.806-5.2,6.606-3.4,6.306-56.249l-.3-47.642-2.8-2.4a10.549,10.549,0,0,0-5.6-2.4c-1.6,0-26.423,4.7-55.248,10.509-106.693,21.219-191.367,34.83-238.308,38.133l-9.809.7v-6.005c0-20.017-14.413-38.934-35.031-45.94-7.807-2.7-21.419-2.5-30.026.4-17.115,5.805-30.126,20.718-33.229,38.233-.6,3.6-1.2,6.606-1.3,6.706-.3.5-14.012-4.4-17.215-6.005-2.7-1.4-3.2-2.4-4.2-7.807-3-17.115-15.313-29.726-32.128-32.929A32.214,32.214,0,0,0,32.228-510.9Zm19.017,22.52c6.005,4.2,8.808,10.109,8.808,18.416,0,5.2.5,7.306,2,9.208,2.8,3.6,16.815,10.609,28.525,14.413l10.009,3.1.3,17.215.2,17.215-2.7-.7c-5.5-1.3-21.919-7.707-29.826-11.71a143.486,143.486,0,0,1-34.53-24.621c-10.91-10.509-13.412-15.413-13.512-25.823,0-6.306.3-7.607,3-11.41C30.026-492.283,42.337-494.685,51.244-488.38Zm112.1-.7c6.105,3.2,12.311,9.608,15.013,15.514l2.3,5.1.3,211.885.2,211.785-2.1,5.805c-4.2,11.21-16.014,19.417-27.924,19.417-11.71,0-23.721-8.207-27.724-19.117-2.1-5.4-2.1-7.206-2.4-217.59l-.4-212.185,2.3-5c3.7-8.007,11.41-15.013,19.317-17.415C147.628-492.483,158.338-491.582,163.342-489.08Zm329.087,15.013v10.91l-4.2,1.5c-2.4.9-9.508,3.4-15.814,5.7-30.427,10.909-72.163,19.917-130.614,28.024-26.023,3.6-28.725,4.2-31.427,7.707a9.489,9.489,0,0,0,7.607,15.313c5.6,0,62.555-8.507,84.374-12.611,26.023-4.9,52.646-11.61,72.864-18.316l17.215-5.805v28.625l-4.7,2.2c-30.226,13.612-119.8,34.53-183.46,42.837-14.012,1.9-46.04,5.1-50.244,5.1-1.1,0-2.3-1.9-3.8-6.406-5.905-17.715-19.017-27.024-45.54-32.328l-4-.8-.3-17.315c-.2-13.312,0-17.315,1-17.715.7-.2,9.208-1.1,18.816-2,56.349-5.1,163.443-22.72,251.219-41.436,10.209-2.2,19.117-4,19.817-4C492.129-484.977,492.429-482.174,492.429-474.067Z"/>
      <path id="Path_2" data-name="Path 2" d="M147.5-431.1a9.692,9.692,0,0,0-3.2,15.8,9.429,9.429,0,0,0,16.2-6.7C160.5-428.6,153.3-433.6,147.5-431.1Z" transform="translate(0.128)"/>
      <path id="Path_3" data-name="Path 3" d="M147.5-100.1a9.692,9.692,0,0,0-3.2,15.8A9.429,9.429,0,0,0,160.5-91C160.5-97.6,153.3-102.6,147.5-100.1Z" transform="translate(0.128 0.447)"/>
      <path id="Path_4" data-name="Path 4" d="M274.5-418.1a9.692,9.692,0,0,0-3.2,15.8,8,8,0,0,0,6.7,2.8c11.6,0,13-17,1.5-19A11.459,11.459,0,0,0,274.5-418.1Z" transform="translate(0.243 0.085)"/>
    </g>
  </g>
</svg>
