<svg width="590" height="560" viewBox="0 0 590 560" fill="none" xmlns="http://www.w3.org/2000/svg">
<path d="M296 530C435.728 530 549 416.728 549 277C549 137.272 435.728 24 296 24C156.272 24 43 137.272 43 277C43 416.728 156.272 530 296 530Z" fill="#FFBD3F"/>
<path d="M255.453 91.1042C256.121 91.1033 256.79 91.1025 257.478 91.1016C267.144 91.1102 276.315 91.4735 285.71 93.9442C286.744 94.1977 287.778 94.4511 288.844 94.7123C305.438 99.0897 320.876 106.458 334.646 116.664C335.359 117.18 336.072 117.696 336.806 118.228C348.4 127.015 358.171 137.733 366.104 149.87C366.636 150.614 367.167 151.357 367.715 152.123C379.903 169.74 387.129 193.856 387.245 215.159C387.252 215.896 387.259 216.633 387.267 217.392C387.288 219.813 387.303 222.235 387.315 224.656C387.32 225.488 387.325 226.32 387.329 227.177C387.353 231.578 387.37 235.979 387.382 240.38C387.394 244.009 387.418 247.637 387.454 251.265C387.497 255.663 387.519 260.061 387.525 264.46C387.531 266.128 387.544 267.796 387.565 269.465C387.762 286.034 387.762 286.034 382.707 293.181C382.221 293.974 381.734 294.767 381.233 295.584C375.976 300.699 369.947 303.789 362.626 303.753C361.609 303.75 360.592 303.747 359.545 303.744C358.483 303.737 357.422 303.73 356.328 303.722C355.256 303.718 354.184 303.714 353.08 303.71C350.431 303.7 347.781 303.686 345.132 303.668C345.085 304.279 345.038 304.891 344.99 305.521C343.173 327.563 334.675 348.99 318.916 364.837C319.176 365.591 319.436 366.345 319.704 367.123C320.302 368.963 320.85 370.822 321.32 372.699C323.588 381.415 326.893 390.95 334.999 395.806C345.221 400.787 356.434 403.556 367.389 406.431C398.069 414.605 423.352 435.844 439.342 462.952C450.318 482.11 456.967 503.187 457.312 525.352C457.345 526.159 457.377 526.966 457.411 527.797C457.421 528.58 457.431 529.362 457.442 530.168C457.459 530.869 457.476 531.571 457.494 532.294C456.716 535.454 455.115 536.699 452.615 538.732C450.211 539.163 448.347 539.322 445.948 539.282C445.281 539.289 444.613 539.295 443.925 539.302C441.68 539.318 439.436 539.302 437.19 539.287C435.568 539.292 433.945 539.299 432.322 539.308C427.857 539.326 423.392 539.317 418.927 539.304C414.114 539.294 409.301 539.309 404.488 539.321C395.056 539.34 385.625 539.336 376.194 539.324C368.531 539.314 360.868 539.312 353.205 539.317C352.115 539.318 351.026 539.318 349.903 539.319C347.69 539.321 345.477 539.322 343.264 539.323C323.09 539.335 302.917 539.323 282.743 539.3C264.322 539.279 245.901 539.281 227.48 539.302C206.789 539.325 186.099 539.335 165.409 539.321C163.204 539.32 160.999 539.318 158.794 539.317C157.709 539.316 156.624 539.316 155.506 539.315C147.849 539.311 140.193 539.318 132.537 539.328C123.21 539.34 113.883 539.337 104.556 539.314C99.7943 539.302 95.0332 539.298 90.2719 539.312C85.9166 539.325 81.5617 539.318 77.2065 539.295C75.6276 539.29 74.0487 539.292 72.4699 539.303C70.3293 539.316 68.1905 539.303 66.0501 539.282C65.4319 539.292 64.8137 539.303 64.1769 539.313C60.8076 539.249 59.462 538.797 56.8157 536.634C54.9432 534.274 54.4671 533.416 54.4953 530.475C54.4955 529.742 54.4957 529.009 54.4959 528.254C54.5228 527.476 54.5496 526.699 54.5772 525.898C54.5934 525.085 54.6095 524.273 54.6261 523.436C55.6568 490.1 70.7725 460.34 93.4635 436.492C94.3066 435.565 94.3066 435.565 95.1668 434.618C110.643 418.135 131.734 410.136 152.721 403.286C154.707 402.626 156.692 401.965 158.676 401.303C162.286 400.1 165.899 398.904 169.515 397.719C170.656 397.335 170.656 397.335 171.821 396.944C173.857 396.295 173.857 396.295 176.845 395.612C180.131 394.061 181.224 391.523 182.732 388.383C183.04 387.773 183.347 387.163 183.663 386.535C184.306 385.248 184.94 383.956 185.566 382.661C186.528 380.677 187.522 378.712 188.522 376.746C189.143 375.492 189.762 374.237 190.379 372.981C190.677 372.393 190.975 371.805 191.283 371.199C192.854 368.013 192.854 368.013 192.506 364.601C190.213 361.642 187.858 358.743 185.474 355.857C182.537 352.191 180.734 348.796 178.937 344.465C177.661 341.6 177.661 341.6 175.605 339.495C171.984 338.643 168.777 338.614 165.085 338.693C160.162 338.591 156.92 336.921 152.885 334.252C152.092 333.766 151.299 333.279 150.482 332.778C146.806 329 142.486 323.116 142.358 317.658C142.394 316.686 142.394 316.686 142.43 315.693C142.901 307.669 142.901 307.669 139.709 300.78C137.445 299.535 137.445 299.535 135.04 298.575C130.058 296.31 127.538 291.059 125.49 286.199C124.498 283.132 124.558 280.124 124.583 276.925C124.578 276.198 124.574 275.471 124.569 274.722C124.557 272.33 124.565 269.938 124.574 267.546C124.572 265.866 124.57 264.187 124.566 262.507C124.562 258.986 124.568 255.464 124.58 251.943C124.595 247.471 124.587 242.999 124.571 238.527C124.561 235.054 124.564 231.581 124.571 228.108C124.573 226.462 124.571 224.816 124.565 223.169C124.459 186.932 138.402 154.225 163.371 128.024C165.608 125.86 167.948 123.87 170.362 121.907C171.169 121.243 171.975 120.578 172.806 119.893C196.433 100.829 225.171 91.1317 255.453 91.1042ZM225.415 113.169C224.777 113.351 224.14 113.534 223.483 113.722C205.784 118.994 190.721 128.484 177.353 141.132C176.633 141.795 175.913 142.459 175.172 143.143C162.045 155.655 152.918 171.924 147.642 189.194C147.31 190.274 146.977 191.354 146.635 192.467C144.586 199.59 143.605 206.259 143.273 213.661C148.752 213.661 154.231 213.661 159.876 213.661C160.074 211.228 160.272 208.795 160.477 206.288C162.642 184.374 172.602 162.579 189.587 148.123C205.598 135.326 223.967 127.108 244.684 126.942C245.533 126.935 246.383 126.928 247.258 126.921C249.057 126.909 250.855 126.899 252.654 126.892C254.467 126.882 256.279 126.865 258.091 126.839C284.058 126.467 306.825 133.522 325.907 151.618C343.206 168.484 350.072 190.086 352.122 213.661C357.602 213.661 363.081 213.661 368.726 213.661C367.604 184.882 352.948 158.18 332.406 138.596C318.17 125.507 301.572 117.535 283.088 112.295C281.982 111.978 280.876 111.662 279.736 111.336C262.371 107.287 242.498 108.243 225.415 113.169ZM195.431 167.566C186.089 178.333 180.122 191.682 178.227 205.797C178.859 205.153 179.491 204.51 180.142 203.848C195.409 188.792 215.569 179.027 237.254 178.915C244.153 179.222 247.098 182.492 251.63 187.446C253.554 189.145 255.557 190.732 257.583 192.307C258.366 192.918 258.366 192.918 259.165 193.541C264.274 197.468 269.604 200.891 275.224 204.049C275.725 204.334 276.226 204.618 276.742 204.911C293.02 214.02 314.826 222.467 333.772 221.526C334.593 199.043 328.588 180.519 313.127 163.743C296.327 147.699 274.668 143.309 252.203 143.624C230.114 144.185 210.923 151.431 195.431 167.566ZM186.53 224.844C185.633 226.064 184.745 227.291 183.866 228.525C182.596 230.264 182.596 230.264 181.293 231.804C177.887 235.963 177.709 239.046 178.172 244.301C178.254 245.515 178.254 245.515 178.339 246.753C178.557 249.708 178.825 252.656 179.101 255.606C179.212 256.841 179.323 258.077 179.434 259.312C180.8 274.306 182.492 289.238 184.89 304.104C185.07 305.224 185.25 306.343 185.435 307.496C186.227 312.214 187.113 316.624 188.713 321.144C192.662 321.425 196.608 321.595 200.564 321.745C202.238 321.866 202.238 321.866 203.945 321.989C207.274 322.084 209.97 322.046 213.181 321.144C215.38 318.878 216.649 316.759 218.008 313.918C220.702 308.933 226.301 306.283 231.531 304.541C233.895 304.346 236.168 304.234 238.532 304.217C239.204 304.209 239.875 304.201 240.567 304.193C241.985 304.181 243.403 304.173 244.822 304.17C246.966 304.159 249.109 304.116 251.253 304.072C260.422 303.978 266.883 304.926 274.186 310.931C280.488 318.674 282.083 325.294 281.543 335.149C280.84 341.151 277.189 346.248 272.602 349.981C265.049 355.19 258.878 355.491 249.928 355.578C248.491 355.597 247.055 355.627 245.619 355.668C236.402 355.93 228.823 355.659 221.045 349.981C218.314 347.123 216.308 344.308 214.887 340.608C213.414 338.478 213.414 338.478 211.416 338.274C209.167 338.19 206.963 338.241 204.715 338.348C203.935 338.368 203.155 338.388 202.351 338.408C200.425 338.46 198.502 338.531 196.578 338.621C206.812 354.985 221.477 367.087 240.379 371.991C259.211 375.672 277.276 372.384 293.575 362.215C312.6 348.658 322.961 328.993 326.781 306.289C330.302 284.514 333.772 261.975 333.772 239.877C333.097 239.781 332.421 239.685 331.726 239.587C297.853 234.665 261.932 224.224 237.498 198.56C235.907 196.779 235.907 196.779 233.006 196.621C213.49 197.78 197.839 209.714 186.53 224.844ZM142.399 231.138C142.334 237.622 142.287 244.106 142.255 250.59C142.242 252.794 142.224 254.999 142.201 257.203C142.169 260.377 142.154 263.55 142.143 266.724C142.129 267.705 142.116 268.687 142.102 269.698C142.101 274.993 142.34 278.943 145.021 283.569C149.156 286.482 152.987 286.313 157.923 286.249C158.836 286.242 158.836 286.242 159.767 286.236C161.26 286.225 162.753 286.208 164.245 286.191C164.14 285.133 164.14 285.133 164.032 284.054C162.291 266.43 160.914 248.817 159.876 231.138C154.109 231.138 148.341 231.138 142.399 231.138ZM352.122 231.138C351.954 233.575 351.785 236.011 351.61 238.522C349.289 271.773 349.289 271.773 347.753 286.191C357.847 286.955 357.847 286.955 366.978 283.569C370.15 278.094 369.941 272.932 369.855 266.724C369.85 265.195 369.85 265.195 369.844 263.635C369.83 260.394 369.797 257.154 369.763 253.913C369.75 251.709 369.738 249.506 369.727 247.303C369.699 241.914 369.653 236.526 369.599 231.138C363.832 231.138 358.065 231.138 352.122 231.138ZM159.876 303.668C159.573 309.243 159.454 313.712 162.497 318.523C164.522 319.783 166.315 320.407 168.614 321.144C169.76 317.383 169.014 314.209 168.232 310.44C168.103 309.789 167.974 309.138 167.841 308.467C167.523 306.866 167.196 305.266 166.867 303.668C164.56 303.668 162.253 303.668 159.876 303.668ZM232.405 323.766C230.263 326.979 229.937 329.646 230.658 333.378C233.016 336.458 234.75 337.935 238.522 338.621C241.378 338.833 244.234 338.823 247.097 338.84C247.863 338.858 248.63 338.876 249.42 338.895C254.332 338.924 257.802 338.414 262.116 336C264.258 332.787 264.584 330.12 263.864 326.388C261.505 323.308 259.772 321.831 255.999 321.144C253.144 320.933 250.287 320.943 247.425 320.926C246.658 320.908 245.891 320.89 245.102 320.871C240.19 320.842 236.719 321.352 232.405 323.766ZM300.941 383.57C300.301 384.209 299.661 384.847 299.002 385.505C297.992 386.521 297.992 386.521 296.961 387.557C296.307 388.207 295.654 388.857 294.981 389.526C291.324 393.19 287.829 396.937 284.451 400.859C282.633 402.932 280.694 404.859 278.719 406.782C275.034 410.422 271.586 414.196 268.233 418.142C271.641 422.221 275.182 426.086 278.958 429.826C279.455 430.321 279.952 430.817 280.464 431.328C282.028 432.888 283.596 434.444 285.164 436.001C286.235 437.067 287.305 438.134 288.376 439.201C290.98 441.796 293.588 444.388 296.196 446.978C298.64 444.841 299.8 442.616 301.153 439.684C301.587 438.747 302.021 437.81 302.468 436.845C302.921 435.845 303.375 434.846 303.842 433.816C304.539 432.287 304.539 432.287 305.249 430.728C307.943 424.767 310.609 418.795 313.072 412.735C313.331 412.125 313.589 411.515 313.855 410.886C315.817 405.881 315.686 402.434 313.565 397.51C312.322 394.91 311.018 392.352 309.686 389.796C309.232 388.907 308.777 388.017 308.309 387.101C307.192 384.919 306.067 382.741 304.935 380.566C303.251 380.566 302.053 382.459 300.941 383.57ZM205.316 384.061C203.815 386.834 202.351 389.623 200.892 392.418C200.468 393.2 200.044 393.982 199.607 394.788C197.183 399.481 195.85 402.392 197.451 407.655C198.656 411.124 199.993 414.524 201.384 417.923C201.77 418.879 202.156 419.834 202.554 420.819C206.066 429.406 209.95 437.787 214.054 446.105C216.607 446.37 216.607 446.37 218 445.093C218.459 444.624 218.919 444.156 219.393 443.674C219.906 443.158 220.418 442.642 220.946 442.11C221.483 441.554 222.021 440.998 222.575 440.425C223.127 439.863 223.679 439.301 224.248 438.723C227.492 435.401 230.63 432.016 233.631 428.471C236.272 425.462 239.155 422.685 242.018 419.889C238.151 415.266 234.082 410.94 229.825 406.676C229.177 406.025 228.529 405.374 227.861 404.704C226.502 403.34 225.142 401.978 223.781 400.617C221.69 398.524 219.606 396.424 217.523 394.324C216.199 392.998 214.874 391.671 213.549 390.346C212.925 389.715 212.3 389.084 211.657 388.434C211.079 387.859 210.502 387.284 209.906 386.692C209.398 386.182 208.89 385.673 208.367 385.148C207.123 383.875 207.123 383.875 205.316 384.061ZM240.27 390.178C244.625 395.451 249.375 400.244 254.251 405.034C257.556 403.694 259.402 401.685 261.734 399.026C262.402 398.271 263.07 397.517 263.758 396.739C265.325 394.887 266.806 393.013 268.233 391.052C267.24 391.062 266.246 391.073 265.222 391.083C256.853 391.141 248.612 390.929 240.27 390.178ZM173.809 415.658C172.775 415.992 172.775 415.992 171.72 416.332C170.979 416.578 170.238 416.823 169.475 417.077C168.31 417.459 168.31 417.459 167.121 417.849C165.472 418.393 163.824 418.94 162.177 419.489C159.707 420.31 157.232 421.114 154.756 421.917C136.513 427.922 120.774 435.858 106.905 449.311C105.939 450.241 104.951 451.148 103.956 452.047C86.4559 468.25 76.2 493.617 73.365 516.886C73.365 518.328 73.365 519.77 73.365 521.255C128.155 521.255 182.945 521.255 239.396 521.255C234.979 513.119 234.979 513.119 230.057 505.362C229.502 504.539 229.502 504.539 228.937 503.699C227.012 500.849 225.058 498.02 223.083 495.204C205.624 470.269 191.733 443.054 180.848 414.646C177.937 414.646 176.452 414.797 173.809 415.658ZM331.15 414.646C330.897 415.286 330.643 415.925 330.382 416.584C319.096 444.87 306.092 473.014 287.444 497.3C283.873 501.992 280.777 506.956 277.682 511.971C276.924 513.197 276.924 513.197 276.151 514.449C273.801 517.652 273.801 517.652 272.602 521.255C327.393 521.255 382.183 521.255 438.633 521.255C437.851 511.819 437.851 511.819 435.903 502.741C435.712 502.038 435.522 501.335 435.325 500.61C427.427 472.596 409.66 447.443 384.052 433.044C375.345 428.503 366.375 425.146 357.069 422.048C354.661 421.245 352.259 420.426 349.858 419.604C348.309 419.08 346.76 418.558 345.21 418.036C344.148 417.674 344.148 417.674 343.064 417.305C339.081 415.987 335.323 415.102 331.15 414.646ZM252.002 435.045C251.09 435.959 250.184 436.879 249.281 437.803C248.568 438.525 248.568 438.525 247.84 439.262C244.86 442.298 242.023 445.419 239.27 448.661C236.389 451.881 233.268 454.869 230.18 457.888C226.614 461.148 226.614 461.148 225.394 465.531C226.723 469.127 228.814 472.072 230.985 475.215C231.455 475.908 231.926 476.601 232.41 477.315C234.688 480.666 236.993 483.998 239.301 487.329C240.097 488.479 240.894 489.63 241.69 490.78C242.078 491.339 242.465 491.898 242.865 492.474C247.171 498.726 251.159 505.173 255.125 511.643C258.194 510.62 258.371 510.125 259.897 507.414C260.304 506.709 260.71 506.004 261.129 505.277C261.563 504.512 261.997 503.747 262.444 502.959C266.056 496.751 269.86 490.82 274.132 485.045C277.495 480.477 280.815 475.911 283.853 471.118C284.688 469.811 284.688 469.811 285.539 468.476C286.751 466.359 286.751 466.359 286.387 464.509C285.571 462.339 284.55 461.22 282.911 459.584C282.322 458.989 281.733 458.394 281.126 457.782C280.486 457.15 279.846 456.518 279.187 455.867C278.533 455.213 277.879 454.558 277.205 453.884C275.822 452.503 274.436 451.125 273.046 449.75C270.913 447.638 268.792 445.513 266.671 443.388C265.328 442.049 263.983 440.711 262.638 439.373C262 438.734 261.362 438.095 260.705 437.437C260.113 436.854 259.521 436.27 258.911 435.669C258.39 435.152 257.869 434.634 257.331 434.101C254.886 432.074 254.304 432.949 252.002 435.045Z" fill="#1E3238"/>
<path d="M386.202 453.969C388.878 455.389 388.878 455.389 391.445 457.464C391.909 457.815 392.373 458.165 392.852 458.526C401.797 465.604 413.011 478.664 414.602 490.398C414.087 493.811 413.088 495.243 410.67 497.661C407.616 499.188 404.39 499.018 401.057 498.535C396.976 495.717 394.803 491.221 392.244 487.056C390.082 483.822 387.573 481.053 384.895 478.242C383.581 476.689 383.581 476.689 383.581 474.941C383.071 474.718 382.562 474.495 382.038 474.265C378.546 472.349 376.113 469.529 373.968 466.203C373.206 463.453 373.44 462.141 373.968 459.212C377.201 454.147 380.315 453.185 386.202 453.969Z" fill="#1E3238"/>
<path d="M356.491 437.366C359.222 439.004 359.222 439.004 360.86 441.735C361.724 446.127 361.539 449.342 359.222 453.204C355.36 455.522 352.145 455.707 347.753 454.843C345.022 453.204 345.022 453.204 343.383 450.474C342.519 446.082 342.705 442.867 345.022 439.004C348.884 436.687 352.099 436.502 356.491 437.366Z" fill="#1E3238"/>
</svg>
