<?xml version="1.0" standalone="no"?>
<!DOCTYPE svg PUBLIC "-//W3C//DTD SVG 20010904//EN"
 "http://www.w3.org/TR/2001/REC-SVG-20010904/DTD/svg10.dtd">
<svg version="1.0" xmlns="http://www.w3.org/2000/svg"
 width="70px" height="70px" viewBox="0 0 349.000000 513.000000"
 preserveAspectRatio="xMidYMid meet">

<g transform="translate(0.000000,513.000000) scale(0.100000,-0.100000)"
fill="#262624" stroke="none">
<path d="M532 5117 c-46 -22 -139 -248 -179 -437 -25 -119 -25 -418 0 -543 23
-114 67 -243 121 -360 24 -50 231 -490 460 -976 229 -486 415 -887 414 -890
-2 -4 -72 -138 -157 -299 l-154 -291 -36 16 c-129 56 -290 77 -413 54 -223
-42 -411 -186 -509 -386 -98 -204 -90 -454 23 -655 17 -30 70 -93 117 -140
123 -122 239 -179 406 -199 205 -25 423 48 566 189 87 85 100 107 339 560 112
212 206 389 210 393 4 4 103 -173 220 -395 117 -222 227 -423 244 -448 169
-249 482 -363 768 -281 418 120 627 586 439 976 -166 343 -567 487 -922 332
l-36 -16 -159 302 c-87 166 -158 305 -156 310 3 9 81 175 560 1177 198 415
374 796 390 847 54 159 67 248 67 453 0 141 -4 205 -18 269 -43 197 -127 405
-177 434 -37 22 -72 21 -103 -3 -30 -24 -323 -475 -331 -510 -3 -14 9 -92 28
-175 19 -82 31 -153 28 -156 -4 -4 -74 -21 -157 -39 -128 -27 -154 -36 -179
-60 -38 -37 -38 -60 2 -232 18 -76 32 -142 32 -147 0 -4 -15 -11 -32 -14 -112
-20 -283 -60 -299 -70 -10 -6 -25 -28 -33 -48 -14 -34 -13 -45 14 -155 16 -64
32 -136 36 -160 l6 -42 -56 -13 c-31 -7 -58 -10 -60 -8 -2 2 -270 407 -595
899 -326 492 -605 907 -622 923 -31 29 -67 34 -107 14z m595 -1095 c507 -765
521 -788 504 -807 -10 -11 -100 -147 -201 -303 -100 -155 -185 -281 -188 -278
-12 13 -615 1286 -638 1349 -14 40 -35 108 -46 152 -25 106 -35 338 -19 442
15 92 50 233 60 233 3 0 241 -355 528 -788z m1791 711 c35 -131 45 -235 39
-382 -7 -148 -27 -250 -75 -376 -31 -83 -1006 -2133 -1021 -2148 -8 -8 -181
76 -181 87 0 2 27 68 60 146 69 163 74 203 34 244 -20 19 -37 26 -65 26 -58 0
-88 -36 -145 -172 -26 -65 -49 -116 -50 -115 -4 4 -164 368 -164 373 0 14 404
626 419 633 9 5 95 26 191 47 255 55 253 54 198 302 -17 78 -29 144 -27 147 3
2 68 18 144 34 161 35 199 52 216 94 13 31 10 51 -40 273 l-18 81 159 36 c88
20 167 42 175 48 8 7 21 26 29 42 15 27 13 42 -26 218 l-42 189 78 125 c44 68
82 124 85 125 4 0 16 -35 27 -77z m-1166 -3088 c15 -10 -4 -50 -175 -373 -105
-199 -195 -362 -199 -362 -4 0 -8 6 -8 14 0 29 -83 177 -126 225 l-46 51 153
289 152 289 116 -61 c64 -33 124 -66 133 -72z m408 -195 l132 -250 -46 -51
c-43 -48 -126 -196 -126 -225 0 -8 -3 -14 -8 -14 -4 0 -63 105 -131 233 l-124
232 84 163 c46 89 85 162 86 162 1 0 61 -113 133 -250z m-1319 -266 c89 -26
166 -73 228 -140 118 -126 164 -291 126 -453 -22 -92 -70 -177 -140 -246 -199
-196 -515 -192 -703 9 -121 131 -165 281 -132 457 31 169 195 338 366 378 64
15 196 12 255 -5z m2059 5 c175 -40 338 -207 370 -378 33 -176 -11 -326 -132
-457 -188 -201 -504 -205 -703 -9 -70 69 -118 154 -140 246 -19 81 -19 137 0
217 43 182 167 316 344 373 63 20 191 24 261 8z"/>
<path d="M1803 2685 c-34 -24 -47 -76 -29 -118 17 -41 41 -57 89 -57 72 0 116
74 83 138 -9 17 -25 36 -35 42 -28 15 -83 12 -108 -5z"/>
</g>
</svg>
