<?xml version="1.0" standalone="no"?>
<!DOCTYPE svg PUBLIC "-//W3C//DTD SVG 20010904//EN"
 "http://www.w3.org/TR/2001/REC-SVG-20010904/DTD/svg10.dtd">
<svg version="1.0" xmlns="http://www.w3.org/2000/svg"
 width="70px" height="70px" viewBox="0 0 240.000000 512.000000"
 preserveAspectRatio="xMidYMid meet">

<g transform="translate(0.000000,512.000000) scale(0.100000,-0.100000)"
fill="#262624" stroke="none">
<path d="M565 5111 c-11 -5 -29 -19 -40 -31 -19 -21 -20 -38 -23 -590 l-2
-568 -70 -4 c-60 -3 -74 -8 -98 -31 l-27 -27 -5 -208 -5 -207 -84 -100 c-144
-171 -180 -241 -201 -382 -6 -42 -10 -545 -10 -1288 0 -1041 2 -1229 15 -1283
44 -187 190 -333 377 -377 93 -22 1523 -22 1616 0 187 44 333 190 377 377 13
54 15 242 15 1283 0 743 -4 1246 -10 1288 -21 141 -57 211 -201 382 l-84 100
-5 207 -5 208 -27 27 c-24 23 -38 28 -97 31 l-70 4 -3 169 -3 169 -28 27 -27
28 -170 3 -169 3 -3 369 -3 370 -28 27 -27 28 -428 2 c-235 1 -436 -2 -447 -6z
m735 -490 l0 -299 -90 -4 c-82 -3 -92 -5 -117 -30 -38 -39 -38 -97 0 -136 l27
-27 290 -3 290 -3 0 -99 0 -100 -500 0 -500 0 0 500 0 500 300 0 300 0 0 -299z
m600 -1001 l0 -100 -700 0 -700 0 0 100 0 100 700 0 700 0 0 -100z m145 -411
c50 -60 104 -137 120 -172 l30 -62 3 -1188 3 -1187 -317 0 -316 0 -34 -34
c-46 -46 -46 -86 0 -132 l34 -34 306 0 c171 0 306 -4 306 -9 0 -5 -15 -31 -32
-57 -36 -54 -109 -108 -166 -124 -51 -14 -1513 -14 -1564 0 -57 16 -130 70
-165 124 -18 26 -33 52 -33 57 0 5 135 9 306 9 l306 0 34 34 c46 46 46 86 0
132 l-34 34 -316 0 -317 0 3 1187 3 1188 30 62 c17 35 71 112 120 172 l90 110
755 0 755 0 90 -110z"/>
<path d="M965 4711 c-64 -27 -81 -110 -32 -158 60 -61 162 -19 162 67 0 66
-72 116 -130 91z"/>
<path d="M465 2911 c-11 -5 -29 -19 -40 -31 -20 -22 -20 -36 -20 -861 l0 -839
28 -27 27 -28 740 0 740 0 27 28 28 27 0 840 0 840 -28 27 -27 28 -728 2
c-400 1 -736 -2 -747 -6z m1335 -891 l0 -700 -600 0 -600 0 0 700 0 700 600 0
600 0 0 -700z"/>
<path d="M1015 2511 c-64 -27 -81 -110 -32 -158 l27 -28 190 0 190 0 27 27
c38 39 38 97 0 136 l-27 27 -178 2 c-97 1 -186 -1 -197 -6z"/>
<path d="M865 2111 c-64 -27 -81 -110 -32 -158 l27 -28 340 0 340 0 27 28 c38
38 38 96 0 134 l-27 28 -328 2 c-180 1 -336 -2 -347 -6z"/>
<path d="M865 1711 c-64 -27 -81 -110 -32 -158 27 -28 28 -28 167 -28 139 0
140 0 167 28 38 38 38 96 0 135 -27 26 -31 27 -155 29 -70 2 -136 -1 -147 -6z"/>
<path d="M1465 1711 c-64 -27 -81 -110 -32 -158 60 -61 162 -19 162 67 0 66
-72 116 -130 91z"/>
<path d="M1151 586 c-30 -17 -50 -52 -51 -89 0 -41 57 -97 100 -97 44 0 100
56 100 100 0 23 -9 42 -34 66 -37 37 -73 43 -115 20z"/>
</g>
</svg>
