<?xml version="1.0" standalone="no"?>
<!DOCTYPE svg PUBLIC "-//W3C//DTD SVG 20010904//EN"
 "http://www.w3.org/TR/2001/REC-SVG-20010904/DTD/svg10.dtd">
<svg version="1.0" xmlns="http://www.w3.org/2000/svg"
 width="70px" height="70px" viewBox="0 0 300.000000 512.000000"
 preserveAspectRatio="xMidYMid meet">

<g transform="translate(0.000000,512.000000) scale(0.100000,-0.100000)"
fill="#262624" stroke="none">
<path d="M65 5111 c-11 -5 -29 -19 -40 -31 -19 -21 -20 -38 -23 -461 -2 -363
0 -449 13 -504 55 -238 258 -394 513 -395 l72 0 0 -159 0 -160 -170 -3 -170
-3 -27 -28 -28 -27 0 -240 0 -240 28 -27 27 -28 171 -3 170 -3 -6 -72 c-17
-210 -45 -357 -110 -593 -80 -287 -108 -443 -120 -689 -18 -326 65 -673 217
-914 192 -305 468 -482 813 -522 230 -27 500 40 693 173 366 252 575 734 547
1263 -12 246 -40 402 -120 689 -93 338 -106 430 -112 849 l-5 337 100 0 101 0
3 -275 3 -275 28 -27 c38 -38 96 -38 135 0 l27 27 0 345 0 345 -28 27 -27 28
-170 3 -170 3 0 100 0 99 73 0 c254 1 457 157 512 395 13 55 15 141 13 505
l-3 440 -27 27 c-39 38 -97 38 -136 0 l-27 -27 -3 -170 -3 -170 -99 0 -99 0
-3 170 -3 170 -27 27 c-39 38 -97 38 -136 0 l-27 -27 -3 -170 -3 -170 -99 0
-99 0 -3 170 -3 170 -28 27 c-38 38 -96 38 -134 0 l-28 -27 -3 -170 -3 -170
-99 0 -99 0 -3 170 -3 170 -28 27 c-20 21 -37 28 -67 28 -30 0 -47 -7 -67 -28
l-28 -27 -3 -170 -3 -170 -99 0 -99 0 -3 170 -3 170 -28 27 c-38 38 -96 38
-134 0 l-28 -27 -3 -170 -3 -170 -99 0 -99 0 -3 170 -3 170 -28 27 c-38 38
-96 38 -135 0 l-27 -27 -3 -170 -3 -170 -99 0 -99 0 -3 170 -3 170 -28 27
c-38 38 -96 38 -134 0 l-28 -27 -3 -170 -3 -170 -99 0 -99 0 -3 170 c-3 166
-4 170 -28 195 -28 27 -74 39 -105 26z m2735 -766 c0 -154 -3 -181 -21 -232
-29 -76 -96 -143 -172 -172 -58 -21 -59 -21 -1107 -21 -1048 0 -1049 0 -1107
21 -76 29 -143 96 -172 172 -18 51 -21 78 -21 232 l0 175 1300 0 1300 0 0
-175z m-597 -1162 c6 -653 12 -710 126 -1118 87 -314 118 -536 108 -770 -20
-468 -235 -848 -570 -1009 -135 -65 -206 -81 -367 -81 -161 0 -232 16 -367 81
-335 161 -550 541 -570 1009 -10 234 21 456 108 770 114 408 120 465 126 1118
l5 537 698 0 698 0 5 -537z m-1603 -83 l0 -100 -100 0 -100 0 0 100 0 100 100
0 100 0 0 -100z"/>
<path d="M665 4311 c-64 -27 -81 -110 -32 -158 60 -61 162 -19 162 67 0 66
-72 116 -130 91z"/>
<path d="M2265 4311 c-64 -27 -81 -110 -32 -158 60 -61 162 -19 162 67 0 66
-72 116 -130 91z"/>
<path d="M1388 3504 c-184 -44 -329 -191 -373 -376 -22 -93 -22 -1323 0 -1416
47 -200 208 -349 413 -384 247 -42 497 131 557 384 22 93 22 1323 0 1416 -64
269 -334 440 -597 376z m219 -205 c76 -29 143 -96 172 -172 21 -57 21 -68 21
-707 0 -639 0 -650 -21 -707 -42 -111 -160 -193 -279 -193 -119 0 -237 82
-279 193 -21 57 -21 68 -21 707 0 639 0 650 21 707 58 153 230 230 386 172z"/>
<path d="M1465 3111 c-49 -21 -60 -48 -60 -142 0 -83 2 -90 28 -116 20 -21 37
-28 67 -28 30 0 47 7 68 28 25 26 27 33 27 117 0 82 -2 92 -25 115 -28 27 -74
39 -105 26z"/>
<path d="M1465 2611 c-64 -27 -81 -110 -32 -158 60 -61 162 -19 162 67 0 66
-72 116 -130 91z"/>
<path d="M1465 2211 c-11 -5 -29 -19 -40 -31 -19 -20 -20 -36 -20 -211 l0
-189 27 -27 c39 -38 97 -38 136 0 l27 27 0 190 c0 189 0 190 -25 215 -28 27
-74 39 -105 26z"/>
<path d="M2043 1352 c-74 -58 -36 -177 57 -177 69 0 112 63 90 130 -20 60 -98
85 -147 47z"/>
<path d="M1938 971 c-14 -11 -42 -50 -64 -88 -21 -37 -73 -103 -115 -145 -84
-86 -149 -123 -245 -138 -75 -12 -109 -43 -109 -99 0 -46 32 -86 75 -96 49
-11 152 13 236 54 94 47 197 137 272 239 117 158 131 236 52 277 -39 20 -72
19 -102 -4z"/>
</g>
</svg>
