<svg width="590" height="560" viewBox="0 0 590 560" fill="none" xmlns="http://www.w3.org/2000/svg">
<path d="M317 516C456.728 516 570 402.728 570 263C570 123.272 456.728 10 317 10C177.272 10 64 123.272 64 263C64 402.728 177.272 516 317 516Z" fill="#FFBD3F"/>
<path d="M278.157 59.077C279.264 59.0299 280.371 58.9828 281.512 58.9342C284.59 59.4377 284.59 59.4377 286.901 61.4556C288.764 64.8408 288.833 66.9631 288.678 70.8011C288.643 71.9184 288.609 73.0357 288.573 74.1868C288.528 75.0337 288.484 75.8807 288.438 76.7533C289.541 76.8612 289.541 76.8612 290.666 76.9713C303.088 78.4959 313.596 82.724 323.865 89.9129C325.958 91.4328 325.958 91.4328 328.841 91.183C330.848 89.5746 332.64 87.807 334.485 86.0161C336.855 84.2062 338.391 83.735 341.346 83.4871C345.083 84.6467 347.414 85.5777 349.944 88.5976C351.18 91.7237 351.443 93.6171 350.966 96.9548C348.866 100.706 346.413 103.656 343.27 106.575C344.507 109.902 345.97 112.74 347.9 115.713C353.33 124.608 357.899 135.454 357.7 146.016C358.466 145.971 359.233 145.926 360.022 145.88C370.3 145.53 370.3 145.53 375.016 149.864C376.679 153.189 376.449 156.809 375.978 160.445C374.252 163.206 373.108 164.766 370.206 166.217C368.082 166.285 365.957 166.298 363.833 166.277C362.689 166.269 361.546 166.26 360.368 166.251C359.047 166.234 359.047 166.234 357.7 166.217C357.64 167.348 357.581 168.479 357.52 169.644C356.217 180.878 351.646 190.503 345.747 199.958C343.928 202.804 343.928 202.804 344.232 206.62C345.165 207.473 346.097 208.326 347.058 209.205C350.265 212.199 350.924 214.689 351.135 219.013C350.893 221.936 349.964 223.64 348.08 225.86C344.689 228.121 342.843 228.344 338.863 228.298C335.161 227.479 333.077 225.194 330.502 222.523C328.851 220.731 328.851 220.731 325.955 221.05C323.865 222.185 321.849 223.359 319.822 224.597C309.51 230.664 300.409 233.484 288.438 235.479C288.438 245.32 288.438 255.161 288.438 265.301C300.818 265.301 313.199 265.301 325.955 265.301C326.272 263.079 326.59 260.856 326.917 258.567C331.654 247.518 338.842 239.233 349.869 234.232C367.873 227.659 387.172 230.853 404.17 238.725C410.886 241.961 416.566 245.94 422.152 250.871C422.952 251.533 423.752 252.195 424.576 252.878C431.13 258.455 438.645 265.479 441.328 273.887C441.454 279.697 438.701 283.784 434.834 287.932C434.379 288.4 433.924 288.868 433.456 289.35C432.74 290.102 432.74 290.102 432.01 290.87C430.653 292.292 429.289 293.707 427.924 295.122C427.369 295.749 426.813 296.377 426.241 297.023C413.408 311.126 393.124 319.371 374.396 320.438C361.505 320.891 349.562 319.152 339.422 310.514C331.736 303.245 327.454 295.995 325.955 285.502C313.574 285.502 301.193 285.502 288.438 285.502C288.438 295.978 288.438 306.454 288.438 317.247C291.354 317.605 294.271 317.962 297.276 318.33C325.18 322.151 352.178 333.512 375.016 349.955C375.567 350.348 376.119 350.742 376.687 351.148C378.426 352.398 380.15 353.667 381.87 354.945C382.406 355.334 382.942 355.722 383.494 356.123C386.689 358.553 388.429 360.476 389.445 364.384C389.371 368.545 388.913 370.553 386.379 373.884C383.286 376.221 381.768 376.89 377.901 376.89C373.468 375.611 370.646 373.655 367.139 370.697C341.669 349.767 307.758 338.009 274.97 338.05C274.324 338.05 273.677 338.05 273.011 338.05C248.07 337.978 248.07 337.978 225.909 347.069C226.771 347.415 227.632 347.762 228.52 348.118C246.047 355.172 263.544 362.297 280.981 369.569C282.769 370.314 284.557 371.058 286.345 371.8C322.372 386.76 322.372 386.76 329.867 404.303C334.223 416.782 333.215 428.814 328.138 440.906C326.018 445.003 323.149 448.418 320.183 451.924C318.897 453.525 317.614 455.127 316.335 456.734C327.304 459.257 327.304 459.257 338.46 460.582C339.461 460.658 339.461 460.658 340.482 460.736C357.118 461.393 374.373 456.012 390.407 452.225C393.548 451.487 396.689 450.751 399.831 450.019C401.766 449.567 403.701 449.112 405.634 448.654C406.5 448.451 407.365 448.248 408.256 448.04C409.015 447.861 409.774 447.681 410.556 447.497C412.533 447.114 412.533 447.114 415.419 447.114C416.192 439.311 414.621 432.759 412.151 425.431C410.59 420.502 410.431 417.426 412.533 412.483C415.421 409.923 417.384 408.789 421.19 408.154C424.947 408.78 427.391 409.576 429.848 412.483C434.601 421.897 436.971 431.802 436.582 442.304C437.456 442.06 438.331 441.816 439.231 441.564C473.78 432.103 473.78 432.103 490.152 440.561C500.082 446.605 506.963 454.429 510.534 465.572C513.534 478.291 512.016 490.553 505.183 501.706C496.029 514.371 483.576 518.699 468.966 522.329C467.519 522.697 466.072 523.066 464.625 523.436C460.767 524.42 456.906 525.39 453.044 526.358C449.033 527.364 445.026 528.383 441.018 529.401C433.791 531.233 426.561 533.054 419.33 534.87C413.739 536.274 408.15 537.685 402.562 539.101C396.287 540.69 390.011 542.273 383.733 543.853C382.708 544.112 381.682 544.371 380.624 544.638C377.745 545.363 374.864 546.084 371.983 546.803C371.169 547.008 370.356 547.214 369.518 547.426C336.578 555.598 308.716 549.692 277.856 537.54C277.071 537.232 276.287 536.923 275.479 536.606C265.038 532.501 254.608 528.367 244.183 524.223C235.766 520.877 227.341 517.55 218.909 514.242C217.858 513.83 216.807 513.417 215.725 512.992C210.481 510.935 205.234 508.887 199.98 506.856C191.153 503.434 182.377 499.99 173.76 496.066C153.889 487.149 136.018 485.717 114.32 486.555C114.334 487.286 114.348 488.016 114.362 488.769C114.373 489.725 114.384 490.681 114.395 491.666C114.409 492.614 114.423 493.563 114.437 494.54C114.251 498.657 112.715 500.674 109.885 503.486C106.632 505.391 103.562 505.243 99.8962 505.222C98.7388 505.231 98.7388 505.231 97.558 505.241C95.0097 505.259 92.4619 505.255 89.9136 505.25C88.1405 505.254 86.3674 505.259 84.5943 505.265C80.8784 505.274 77.1628 505.271 73.447 505.262C68.6874 505.251 63.9284 505.27 59.1689 505.298C55.5071 505.316 51.8456 505.316 48.1838 505.31C46.4291 505.31 44.6744 505.316 42.9198 505.328C40.4649 505.342 38.0113 505.332 35.5565 505.315C34.8332 505.325 34.11 505.334 33.3648 505.344C28.6574 505.277 26.2315 504.347 22.9322 500.985C21.5113 498.143 21.8209 495.259 21.8157 492.142C21.8108 491.421 21.8059 490.7 21.8009 489.957C21.7857 487.528 21.7775 485.099 21.7694 482.67C21.7602 480.934 21.7507 479.198 21.7409 477.461C21.7107 471.749 21.6912 466.036 21.6734 460.323C21.6702 459.351 21.667 458.38 21.6638 457.38C21.6342 448.225 21.6084 439.071 21.5922 429.917C21.5711 418.197 21.5307 406.477 21.4638 394.757C21.4184 386.522 21.395 378.287 21.388 370.051C21.3833 365.13 21.3687 360.209 21.3306 355.287C21.2952 350.658 21.287 346.029 21.2998 341.4C21.2997 339.7 21.2898 338 21.2692 336.3C21.2427 333.98 21.2517 331.663 21.2696 329.342C21.2535 328.669 21.2373 327.996 21.2207 327.302C21.2714 324.68 21.5019 322.641 23.1709 320.561C27.1424 317.041 30.6355 316.557 35.7387 316.625C36.9106 316.612 36.9106 316.612 38.1062 316.6C40.6757 316.578 43.2435 316.592 45.813 316.609C47.6049 316.605 49.3968 316.601 51.1887 316.595C54.9385 316.588 58.6877 316.598 62.4373 316.62C67.2403 316.648 72.0419 316.632 76.8447 316.603C80.5428 316.586 84.2406 316.591 87.9387 316.604C89.7095 316.607 91.4803 316.603 93.251 316.592C95.7267 316.58 98.2004 316.598 100.676 316.625C101.405 316.615 102.134 316.606 102.886 316.596C106.684 316.671 108.379 317.113 111.385 319.511C114.611 323.674 114.441 327.294 114.38 332.338C114.376 333.014 114.371 333.689 114.367 334.384C114.356 336.047 114.338 337.71 114.32 339.373C124.339 339.426 134.358 339.436 144.377 339.395C149.031 339.378 153.685 339.373 158.339 339.402C162.843 339.43 167.345 339.419 171.849 339.384C173.555 339.377 175.26 339.383 176.966 339.403C189.489 339.539 197.824 337.025 208.594 330.715C211.362 329.418 214.156 328.258 217.011 327.168C217.715 326.897 218.419 326.627 219.144 326.348C234.989 320.467 251.352 317.247 268.236 317.247C268.236 306.771 268.236 296.296 268.236 285.502C255.221 285.82 242.205 286.137 228.795 286.464C227.208 290.591 225.621 294.718 223.985 298.97C221.788 302.204 219.874 304.829 217.251 307.628C216.679 308.24 216.106 308.853 215.515 309.484C205.422 319.242 192.968 320.52 179.663 320.336C158.531 319.679 140.779 309.459 125.864 295.122C124.805 294.121 124.805 294.121 123.726 293.1C121.818 291.253 119.978 289.369 118.168 287.426C117.658 286.885 117.149 286.345 116.623 285.788C113.531 282.08 112.323 278.615 112.595 273.767C116.661 259.407 133.854 247.602 146.028 240.447C151.556 237.371 157.314 235.342 163.381 233.555C164.043 233.332 164.705 233.109 165.387 232.879C178.198 228.963 194.109 229.789 206.279 235.183C216.907 240.963 223.889 250.084 227.833 261.453C227.833 262.723 227.833 263.992 227.833 265.301C241.166 265.301 254.499 265.301 268.236 265.301C267.919 255.46 267.601 245.619 267.274 235.479C264.973 234.944 262.671 234.408 260.3 233.856C249.153 231.117 239.878 227.119 230.719 220.088C227.853 221.369 225.989 222.785 223.805 225.018C221.116 227.372 219.274 228.26 215.688 228.445C212.455 228.197 211.404 227.733 208.594 225.86C206.223 222.304 205.278 219.554 205.708 215.278C207.271 212.272 207.271 212.272 209.556 209.506C209.995 208.965 210.434 208.425 210.886 207.868C212.026 206.473 213.193 205.102 214.366 203.734C214.005 203.221 213.644 202.707 213.272 202.179C206.608 192.476 200.36 181.31 199.812 169.261C199.675 166.39 199.509 164.851 198.012 162.369C193.816 159.385 188.987 157.439 184.221 155.555C182.62 154.673 182.62 154.673 180.696 151.787C179.985 147.369 180.11 144.068 182.5 140.244C185.665 137.265 187.674 137.229 191.985 137.136C194.808 137.423 197.276 138.32 199.936 139.282C200.274 138.166 200.613 137.05 200.962 135.9C203.576 127.543 206.308 120.106 211.077 112.715C212.829 109.822 212.829 109.822 213.404 106.575C212.064 104.693 212.064 104.693 210.157 102.967C207.731 100.351 206.147 98.4637 205.527 94.9106C205.744 90.43 206.468 88.6535 209.556 85.4111C213.098 83.8367 215.34 83.3487 219.175 83.908C223.128 85.9668 225.828 88.8621 228.795 92.1449C230.239 91.3116 230.239 91.3116 231.711 90.4615C255.749 76.7533 255.749 76.7533 268.236 76.7533C268.203 76.0564 268.169 75.3595 268.135 74.6415C267.98 69.1262 267.985 65.168 271.122 60.3997C272.922 58.6001 275.744 59.1468 278.157 59.077ZM241.301 109.461C240.619 109.985 239.937 110.51 239.234 111.05C230.974 117.776 225.866 126.555 222.061 136.396C221.753 137.192 221.444 137.988 221.126 138.808C216.242 153.663 218.691 170.557 225.609 184.314C228.863 189.832 232.95 194.398 237.453 198.924C238.022 199.527 238.591 200.13 239.178 200.751C243.221 204.695 247.794 207.257 252.784 209.807C253.416 210.132 254.047 210.457 254.697 210.792C267.9 217.234 284.549 217.441 298.37 212.782C314.156 206.809 325.701 195.711 333.147 180.662C339.859 165.511 340.209 150.061 334.515 134.453C327.229 117.649 315.503 106.911 299.019 99.5063C279.323 92.0399 257.546 96.537 241.301 109.461ZM139.835 270.362C138.075 272.37 137.309 274.335 136.445 276.844C147.729 289.471 162.822 298.918 180.02 300.161C188.331 300.34 195.598 300.032 201.988 294.216C204.568 291.38 206.411 289.164 207.632 285.502C206.227 285.489 206.227 285.489 204.794 285.475C201.306 285.436 197.82 285.373 194.333 285.303C192.826 285.275 191.319 285.255 189.812 285.242C187.641 285.221 185.471 285.176 183.3 285.126C182.296 285.125 182.296 285.125 181.271 285.123C176.682 284.986 174.277 283.98 171.077 280.692C169.747 276.953 170.051 275.134 171.197 271.313C173.28 267.703 173.936 267.392 177.81 266.263C180.065 266.046 182.329 265.922 184.593 265.864C185.544 265.836 185.544 265.836 186.514 265.808C188.522 265.751 190.531 265.706 192.541 265.661C193.909 265.625 195.278 265.587 196.646 265.549C199.987 265.457 203.328 265.376 206.67 265.301C204.391 259.207 200.37 255.679 194.765 252.434C173.88 247.462 155.425 257.107 139.835 270.362ZM352.89 256.643C348.795 260.402 348.795 260.402 347.118 265.301C348.195 265.315 349.273 265.329 350.382 265.343C354.395 265.399 358.407 265.473 362.419 265.553C364.153 265.585 365.886 265.612 367.62 265.634C370.118 265.666 372.615 265.717 375.113 265.77C375.883 265.777 376.653 265.783 377.446 265.789C382.13 265.911 385.363 266.613 389.445 269.149C391.11 271.103 391.397 272.306 391.294 274.853C390.96 277.889 390.411 280.68 389.445 283.578C386.866 284.543 384.363 284.677 381.628 284.738C380.858 284.757 380.088 284.776 379.295 284.796C378.473 284.812 377.651 284.828 376.804 284.845C375.956 284.865 375.107 284.885 374.233 284.905C371.528 284.968 368.822 285.025 366.117 285.081C364.281 285.123 362.445 285.165 360.608 285.207C356.112 285.31 351.615 285.408 347.118 285.502C348.078 290.238 350.67 293.547 354.57 296.313C363.65 301.683 374.742 301.042 384.695 298.489C397.178 294.45 407.519 287.413 416.381 277.806C416.857 276.378 416.857 276.378 417.343 274.92C410.49 264.262 395.634 255.901 383.613 252.434C372.607 250.687 362.033 249.126 352.89 256.643ZM41.2097 337.449C41.2097 386.019 41.2097 434.589 41.2097 484.631C58.6696 484.631 76.1295 484.631 94.1185 484.631C94.1185 436.061 94.1185 387.491 94.1185 337.449C76.6586 337.449 59.1987 337.449 41.2097 337.449ZM114.32 359.574C114.32 394.812 114.32 430.049 114.32 466.354C127.653 466.671 140.986 466.989 154.723 467.316C162.956 469.545 169.879 471.71 177.45 475.192C179.395 476.021 181.343 476.842 183.293 477.657C187.391 479.376 191.474 481.125 195.549 482.897C205.351 487.126 215.322 490.932 225.274 494.793C230.918 496.987 236.553 499.206 242.188 501.425C243.857 502.081 243.857 502.081 245.561 502.751C252.423 505.451 259.281 508.161 266.137 510.878C270.618 512.653 275.101 514.423 279.584 516.192C281.687 517.024 283.79 517.858 285.891 518.695C306.438 527.013 306.438 527.013 328.119 531.167C328.877 531.257 329.635 531.348 330.415 531.441C347.941 533.109 365.166 527.822 381.943 523.497C385.29 522.636 388.641 521.787 391.991 520.935C396.882 519.691 401.771 518.442 406.659 517.187C414.488 515.177 422.324 513.197 430.164 511.235C434.978 510.029 439.79 508.814 444.6 507.595C447.875 506.765 451.15 505.94 454.428 505.124C458.073 504.217 461.712 503.288 465.351 502.356C466.421 502.093 467.49 501.83 468.592 501.559C476.664 499.466 483.853 496.715 488.529 489.441C491.5 484.029 492.367 479.233 491.415 473.088C489.146 465.955 485.401 461.365 478.909 457.696C471.5 454.37 464.469 455.991 456.888 457.773C455.49 458.092 455.49 458.092 454.065 458.417C450.996 459.119 447.93 459.832 444.864 460.544C442.721 461.036 440.577 461.528 438.434 462.019C432.794 463.312 427.156 464.613 421.518 465.916C412.51 467.998 403.499 470.067 394.487 472.135C391.352 472.856 388.218 473.581 385.083 474.306C383.141 474.753 381.199 475.201 379.257 475.648C378.397 475.848 377.537 476.048 376.651 476.254C347.768 482.886 322.7 481.049 294.984 470.72C293.851 470.299 292.718 469.878 291.551 469.445C279.805 465.065 268.103 460.571 256.412 456.047C252.883 454.682 249.353 453.32 245.823 451.958C240.213 449.792 234.608 447.614 229.004 445.43C226.032 444.276 223.055 443.136 220.077 441.997C218.332 441.321 216.587 440.644 214.843 439.967C214.061 439.672 213.279 439.378 212.474 439.074C208.497 437.515 205.534 436.143 202.822 432.685C202.116 429.739 202.265 426.998 202.822 424.027C204.627 421.62 205.938 420.545 208.594 419.217C215.489 418.36 221.191 421.157 227.506 423.677C229.303 424.378 231.101 425.079 232.898 425.779C235.409 426.762 237.916 427.755 240.423 428.747C244.168 430.227 247.918 431.693 251.669 433.16C254.596 434.305 257.523 435.453 260.447 436.609C266.082 438.828 271.732 440.997 277.422 443.07C278.5 443.464 279.578 443.858 280.689 444.265C287.48 446.404 292.643 445.654 298.956 442.481C306.239 438.309 309.95 432.683 312.138 424.669C313.248 417.855 311.061 412.575 308.098 406.531C300.794 398.103 288.356 394.625 278.277 390.538C276.541 389.828 274.806 389.116 273.071 388.404C269.453 386.92 265.833 385.44 262.213 383.961C256.746 381.726 251.29 379.466 245.836 377.198C244.957 376.832 244.077 376.467 243.171 376.09C240.583 375.014 237.996 373.938 235.409 372.862C232.24 371.544 229.071 370.227 225.902 368.912C225.239 368.636 224.576 368.36 223.892 368.076C222.506 367.501 221.115 366.937 219.72 366.382C217.864 365.603 216.038 364.749 214.231 363.86C203.489 358.9 193.747 358.818 182.053 359.011C180.31 359.019 178.568 359.025 176.825 359.028C170.439 359.058 164.054 359.139 157.669 359.214C136.211 359.392 136.211 359.392 114.32 359.574Z" fill="#1E3238"/>
<path d="M282.665 101.765C285.491 103.208 285.491 103.208 287.475 105.613C287.953 107.48 287.953 107.48 288.317 109.521C288.65 111.543 288.65 111.543 289.399 113.308C292.537 115.031 292.537 115.031 296.133 116.194C300.407 119.235 303.119 121.76 304.791 126.776C305.397 131.854 305.663 135.904 302.987 140.364C299.847 143.135 297.561 143.514 293.349 143.468C289.691 142.857 288.052 141.003 285.551 138.32C285.075 136.415 285.075 136.415 284.589 134.472C280.462 134.154 276.336 133.837 272.084 133.51C272.084 137.637 272.084 141.764 272.084 146.016C273.406 145.982 274.727 145.949 276.089 145.914C277.84 145.887 279.592 145.861 281.343 145.835C282.647 145.799 282.647 145.799 283.977 145.762C290.189 145.694 294.382 146.377 299.098 150.765C299.647 151.42 300.197 152.075 300.763 152.749C301.324 153.404 301.886 154.059 302.465 154.734C306.026 159.6 305.044 165.932 305.091 171.688C305.119 172.804 305.147 173.919 305.176 175.068C305.224 181.582 304.969 186.864 300.943 192.191C298.809 194.205 298.809 194.205 296.614 195.557C295.89 196.024 295.166 196.49 294.42 196.97C292.285 197.962 292.285 197.962 288.437 197.962C288.517 198.974 288.596 199.986 288.678 201.029C288.401 205.253 287.581 206.6 284.589 209.506C281.075 210.677 278.666 210.844 274.97 210.468C271.823 208.603 269.65 207.267 268.627 203.625C268.356 201.51 268.356 201.51 268.236 197.962C267.422 197.923 266.609 197.883 265.771 197.842C260.217 196.428 256.839 193.076 253.926 188.222C252.113 183.589 251.448 179.916 251.882 174.875C253.437 171.931 254.841 169.833 257.414 167.72C260.833 166.865 263.893 167.197 267.274 168.141C270.628 170.378 271.045 171.604 271.843 175.596C271.923 176.628 272.002 177.66 272.084 178.723C276.211 178.723 280.337 178.723 284.589 178.723C284.589 174.279 284.589 169.834 284.589 165.255C282.657 165.356 282.657 165.356 280.685 165.458C263.91 166.075 263.91 166.075 258.195 161.201C252.317 154.484 251.692 148.094 251.642 139.522C251.622 138.686 251.602 137.851 251.582 136.99C251.543 130.491 252.254 124.985 256.564 119.809C257.202 119.291 257.839 118.773 258.496 118.239C259.172 117.684 259.847 117.13 260.544 116.559C262.464 115.232 262.464 115.232 265.169 114.331C267.385 113.525 267.385 113.525 268.07 111.629C268.543 110.26 269.007 108.888 269.465 107.514C271.803 101.118 276.602 100.725 282.665 101.765Z" fill="#1E3238"/>
<path d="M407.723 380.738C410.374 382.836 411.99 384.462 413.495 387.472C413.99 391.76 413.788 393.726 411.511 397.452C408.149 400.457 406.421 400.939 401.951 400.939C398.729 400.19 397.325 399.189 394.917 396.911C392.821 393.418 392.729 391.491 393.294 387.472C396.958 380.875 400.388 379.572 407.723 380.738Z" fill="#1E3238"/>
</svg>
