<svg width="590" height="560" viewBox="0 0 590 560" fill="none" xmlns="http://www.w3.org/2000/svg">
<g clip-path="url(#clip0_31_206)">
<path d="M330 520C469.728 520 583 406.728 583 267C583 127.272 469.728 14 330 14C190.272 14 77 127.272 77 267C77 406.728 190.272 520 330 520Z" fill="#FFBD3F"/>
<path fill-rule="evenodd" clip-rule="evenodd" d="M101.17 46.017C96.3023 50.885 97.0103 53.717 108.519 75.379L118.632 94.417L115.287 94.998C100.693 97.537 105.024 115.406 120.234 115.406H125.652V122.953L118.623 123.453C100.973 124.716 101.13 143.714 118.792 143.714H125.748L125.456 149.163L125.164 154.609L118.246 157.297C74.3743 174.338 42.3873 212.224 31.7913 259.697C29.7653 268.773 29.6493 272.228 28.9913 342.872C28.1433 433.747 28.0033 435.007 13.2913 483.872C2.60134 519.38 5.02034 531.589 24.5493 540.682L29.4943 542.982L235.52 542.991C463.042 543.002 445.83 543.478 460.029 536.783C500.447 517.727 518.501 458.99 498.301 412.269C493.313 400.73 490.309 396.832 451.764 351.881L415.598 309.704V296.01H420.893C428.493 296.01 432.193 292.83 432.193 286.303C432.193 281.176 429.028 276.485 425.569 276.485C422.031 276.485 422.582 275.032 436.227 248.377C451.568 218.404 451.882 217.22 445.879 211.809L442.901 209.124H376.483C288.536 209.124 293.774 205.659 315.639 249.365C322.947 263.973 328.46 276.08 327.891 276.265C316.973 279.904 319.81 296.005 331.367 296.005H335.54V309.476L323.093 324.304L310.646 339.133L310.081 305.122C309.348 260.995 307.288 250.062 295.033 225.228C287.524 210.01 285.367 207.656 278.941 207.656C268.341 207.656 266.159 215.885 273.393 228.549C280.293 240.636 283.903 250.341 287.863 267.489C288.542 270.426 289.181 298.719 289.634 345.795C290.504 436.369 291.024 440.995 305.771 489.101C313.897 515.601 313.733 519.891 304.503 522.455C299.495 523.846 39.6663 523.847 34.6583 522.455C25.5963 519.938 25.2713 515.45 32.4493 491.955C48.1913 440.429 48.6113 436.803 49.5053 344.818C50.2723 265.799 50.1663 267.443 55.5283 251.099C61.0281 234.532 70.0456 219.35 81.9625 206.594C93.8794 193.839 108.414 183.811 124.569 177.199L134.923 173.023L169.58 173.043L204.236 173.064L211.559 175.956C222.38 180.23 227.374 179.595 230.641 173.527C234.314 166.705 230.89 161.152 220.603 157.247L214.515 154.937L214.501 149.324L214.486 143.711H221.852C240.402 143.711 239.867 124.424 221.288 123.374L214.488 122.989V115.406H220.882C231.142 115.406 234.989 112.474 234.989 104.656C234.989 98.803 230.949 94.904 224.889 94.904H220.489L230.182 74.987C240.334 54.124 240.782 52.641 238.399 48.026C235.84 43.077 237.073 43.163 168.596 43.163H104.025L101.17 46.017ZM148.91 70.741C150.569 75.171 153.259 82.441 154.887 86.888L157.849 94.982L149.962 94.698L142.076 94.416L133.865 78.839C129.348 70.272 125.654 63.133 125.654 62.975C129.02 62.6888 132.398 62.593 135.774 62.688H145.894L148.911 70.742M212.376 63.531C212.196 63.993 208.786 71.242 204.795 79.638L197.54 94.904H179.77L174.187 79.529C171.117 71.072 168.605 63.823 168.606 63.421C168.607 63.019 178.528 62.689 190.654 62.689C202.78 62.689 212.554 63.068 212.376 63.531ZM193.99 119.311V123.211H146.153V115.401H193.989V119.301M193.989 148.101V152.495H146.153V143.709H193.989V148.101ZM248.415 179.908C243.359 182.852 242.437 190.989 246.626 195.678C254.19 204.143 267.688 195.298 263.316 184.742C261.175 179.574 253.349 177.035 248.416 179.909M370.707 230.839C370.716 231.51 369.97 241.839 369.05 253.781L367.377 275.503H351.477L340.962 253.781C335.178 241.834 330.229 231.51 329.962 230.839C329.586 229.887 333.996 229.619 350.085 229.619C365.91 229.619 370.695 229.901 370.708 230.839M411.008 252.317L399.488 275.017L393.73 275.317L387.972 275.617L388.581 267.998C388.916 263.808 389.711 253.46 390.345 245.003L391.501 229.628H422.528L411.008 252.328M154.297 245.718C79.2683 259.328 50.4603 352.271 104.661 405.857C162.84 463.375 261.64 424.248 264.94 342.381C267.378 281.932 213.603 234.951 154.294 245.713M185.381 266.188C236.681 277.061 261.166 335.765 232.466 379.088C196.9 432.779 114.883 418.346 99.1733 355.633C86.3963 304.627 133.952 255.285 185.381 266.185M166.054 279.347C162.798 280.734 159.817 285.221 159.817 288.74C159.817 291.495 159.417 292.04 156.945 292.577C146.525 294.866 142.245 302.787 142.245 319.784C142.245 341.262 148.398 347.729 168.845 347.742H177.387V363.362H162.84L162.204 359.976C161.478 356.105 157.745 351.91 154.623 351.454C137.289 348.925 138.113 376.392 155.551 382.38C158.712 383.466 159.425 384.216 159.886 386.945C161.048 393.826 163.94 396.554 170.073 396.554C176.206 396.554 179.099 393.826 180.261 386.945C180.722 384.216 181.434 383.466 184.596 382.38C194.713 378.906 197.896 372.427 197.896 355.314C197.896 333.471 193.196 327.997 173.896 327.384L162.747 327.03V312.524L170.188 312.809L177.628 313.095L178.728 316.511C180.301 321.392 185.828 324.05 191.115 322.465C203.858 318.648 197.795 295.789 183.189 292.58C180.696 292.033 180.317 291.51 180.317 288.626C180.317 282.052 172.158 276.746 166.052 279.349M395.091 299.915V303.815H356.041V296.005H395.091V299.905M437.015 366.533C469.215 404.088 473.703 409.726 477.575 417.541C493.975 450.633 485.711 493.28 459.034 513.228C446.134 522.874 441.96 523.42 380.878 523.445L332.009 523.464L332.38 514.922C332.736 506.698 332.515 505.614 326.451 485.879C313.895 445.017 310.168 422.642 310.16 388.095V372.315L330.191 348.315L350.222 324.315H400.812L437.018 366.537M371.444 371.72C368.108 373.529 366.782 375.964 366.782 380.276C366.782 383.376 366.496 383.701 363.282 384.305C353.129 386.211 347.688 396.941 348.443 413.572C349.301 432.487 355.509 438.535 374.07 438.535H384.359V454.163H368.74V451.289C368.74 447.017 365.14 443.41 360.217 442.751C343.254 440.475 345.717 468.66 362.926 473.817C366.399 474.858 366.787 475.294 366.787 478.162C366.787 482.132 370.668 486.982 374.522 487.828C380.598 489.163 387.289 483.628 387.289 477.26C387.289 475.471 387.956 474.713 389.973 474.221C400.932 471.544 405.109 463.373 404.689 445.435C404.198 424.404 399.359 419.217 379.35 418.269L368.66 417.763L368.944 410.825L369.228 403.887L376.628 403.605L384.028 403.323L385.178 407.159C386.585 411.859 389.842 414.138 395.14 414.138C410.734 414.138 406.266 387.683 390.089 384.225C387.94 383.766 387.431 383.015 386.976 379.625C386.816 377.893 386.22 376.23 385.243 374.791C384.266 373.352 382.941 372.184 381.391 371.395C379.841 370.606 378.117 370.223 376.378 370.28C374.64 370.338 372.945 370.835 371.45 371.725" fill="#1E3238"/>
</g>
<defs>
<clipPath id="clip0_31_206">
<rect width="590" height="560" fill="white"/>
</clipPath>
</defs>
</svg>
