<svg width="590" height="560" viewBox="0 0 590 560" fill="none" xmlns="http://www.w3.org/2000/svg">
<path d="M314 521C453.728 521 567 407.728 567 268C567 128.272 453.728 15 314 15C174.272 15 61 128.272 61 268C61 407.728 174.272 521 314 521Z" fill="#FFBD3F"/>
<path d="M268.895 61.442C271.647 62.6464 273.877 64.337 276.237 66.179C276.914 66.6808 277.59 67.1825 278.287 67.6995C280.542 69.382 282.772 71.0943 285.001 72.8108C286.667 74.0773 288.333 75.343 290.001 76.6078C292.571 78.5619 295.14 80.5189 297.702 82.4841C302.801 86.3942 307.945 90.2123 313.195 93.9172C324.147 101.655 334.869 109.719 345.585 117.779C352.694 123.12 359.86 128.384 367.024 133.651C371.539 136.972 376.051 140.298 380.563 143.624C384.347 146.413 388.133 149.201 391.92 151.985C399.556 157.601 407.171 163.242 414.746 168.939C421.855 174.28 429.02 179.544 436.184 184.81C439.951 187.581 443.715 190.356 447.48 193.13C448.965 194.225 450.45 195.319 451.936 196.413C455.085 198.733 458.233 201.055 461.38 203.378C462.186 203.972 462.991 204.566 463.821 205.178C465.352 206.308 466.883 207.438 468.413 208.568C469.797 209.589 471.187 210.602 472.583 211.607C474.481 213.026 474.481 213.026 476.05 214.441C481.174 218.847 486.573 218.335 493.074 218.237C495.178 218.205 497.283 218.194 499.387 218.207C500.312 218.192 501.238 218.176 502.191 218.161C506.082 218.981 507.283 220.156 509.535 223.447C510.242 227.138 510.221 230.771 510.197 234.52C510.207 236.133 510.207 236.133 510.218 237.779C510.225 240.05 510.22 242.321 510.204 244.593C510.186 248.068 510.223 251.54 510.266 255.015C510.266 257.223 510.263 259.431 510.256 261.639C510.271 262.678 510.285 263.716 510.3 264.786C510.285 265.756 510.27 266.727 510.255 267.727C510.253 269.003 510.253 269.003 510.25 270.304C509.535 272.712 509.535 272.712 503.85 277.449C496.66 277.449 489.469 277.449 482.06 277.449C482.06 339.039 482.06 400.63 482.06 464.087C488.313 464.087 494.566 464.087 501.008 464.087C506.928 467.639 506.928 467.639 508.587 470.718C508.948 473.732 508.948 473.732 508.955 477.335C508.962 478.323 508.963 478.323 508.97 479.33C508.983 481.501 508.974 483.672 508.965 485.844C508.967 487.356 508.969 488.869 508.973 490.381C508.977 493.55 508.971 496.719 508.958 499.888C508.942 503.944 508.951 508 508.968 512.057C508.978 515.18 508.975 518.304 508.968 521.427C508.966 522.923 508.968 524.418 508.975 525.913C508.982 528.007 508.971 530.099 508.955 532.192C508.953 533.382 508.951 534.572 508.948 535.797C508.554 539.224 507.876 540.976 505.745 543.668C502.197 546.164 498.312 545.827 494.149 545.804C492.952 545.809 492.952 545.809 491.731 545.813C489.039 545.821 486.348 545.816 483.656 545.81C481.714 545.813 479.772 545.817 477.83 545.821C472.479 545.831 467.128 545.829 461.777 545.825C456.012 545.822 450.247 545.831 444.482 545.838C433.182 545.85 421.882 545.852 410.582 545.849C401.401 545.848 392.22 545.849 383.038 545.853C381.72 545.854 380.402 545.855 379.084 545.855C377.098 545.856 375.112 545.857 373.126 545.858C354.655 545.866 336.184 545.87 317.713 545.866C316.668 545.866 316.668 545.866 315.602 545.865C312.071 545.865 308.54 545.864 305.009 545.863C304.308 545.863 303.607 545.863 302.884 545.863C301.466 545.862 300.048 545.862 298.63 545.862C276.559 545.857 254.489 545.864 232.419 545.882C207.634 545.901 182.85 545.911 158.065 545.907C155.424 545.907 152.783 545.907 150.141 545.906C149.491 545.906 148.841 545.906 148.17 545.906C138.341 545.905 128.512 545.911 118.683 545.921C107.509 545.933 96.3339 545.934 85.1591 545.923C79.454 545.917 73.7491 545.916 68.044 545.927C62.8261 545.938 57.6083 545.935 52.3904 545.921C50.4982 545.919 48.6059 545.921 46.7137 545.929C44.1501 545.938 41.587 545.93 39.0234 545.918C38.2815 545.925 37.5396 545.932 36.7752 545.939C32.5043 545.896 29.7373 545.394 26.3605 542.721C24.0183 539.208 24.21 537.393 24.1754 533.195C24.1675 532.519 24.1597 531.842 24.1515 531.145C24.1287 528.907 24.1204 526.67 24.1141 524.432C24.1056 522.875 24.097 521.319 24.0882 519.762C24.0726 516.499 24.0653 513.235 24.0626 509.971C24.0575 505.792 24.0218 501.614 23.9785 497.436C23.9503 494.22 23.9434 491.005 23.9425 487.79C23.9385 486.249 23.9267 484.709 23.9069 483.169C23.8815 481.012 23.886 478.857 23.8979 476.699C23.8931 475.473 23.8883 474.247 23.8833 472.983C24.614 468.953 26.0718 467.582 29.2027 465.034C35.4233 461.924 43.0907 464.087 50.0455 464.087C50.0455 402.496 50.0455 340.906 50.0455 277.449C43.48 277.449 36.9145 277.449 30.1501 277.449C24.4657 272.712 24.4657 272.712 23.7502 270.304C23.7486 269.454 23.7469 268.603 23.7452 267.727C23.7304 266.756 23.7155 265.786 23.7002 264.786C23.7219 263.228 23.7219 263.228 23.7441 261.639C23.7409 260.564 23.7377 259.488 23.7344 258.38C23.7347 256.109 23.7491 253.838 23.7767 251.567C23.8142 248.091 23.7963 244.62 23.7718 241.144C23.779 238.936 23.7894 236.728 23.8033 234.52C23.7967 233.482 23.79 232.443 23.7832 231.374C23.9157 224.224 23.9157 224.224 26.6168 220.408C29.2527 218.677 30.2675 218.169 33.3439 218.373C34.5007 218.407 34.5007 218.407 35.6809 218.441C36.9001 218.487 36.9001 218.487 38.1438 218.533C47.6781 218.431 52.5363 215.939 59.5995 209.818C63.1278 206.845 66.8858 204.165 70.5923 201.42C72.224 200.194 73.8548 198.967 75.4847 197.738C82.3281 192.593 89.2286 187.526 96.1281 182.457C99.8757 179.702 103.619 176.942 107.363 174.182C108.863 173.077 110.363 171.972 111.863 170.867C112.606 170.319 113.348 169.772 114.113 169.209C120.864 164.235 120.864 164.235 123.114 162.577C124.614 161.471 126.115 160.365 127.616 159.259C131.353 156.505 135.09 153.753 138.831 151.005C146.528 145.346 154.202 139.658 161.839 133.918C170.213 127.623 178.636 121.395 187.079 115.192C190.826 112.437 194.57 109.677 198.314 106.917C199.814 105.812 201.314 104.707 202.814 103.601C203.556 103.054 204.299 102.507 205.064 101.943C211.814 96.9695 211.814 96.9695 214.065 95.311C215.563 94.2074 217.06 93.1036 218.558 91.9998C222.342 89.2109 226.127 86.4237 229.915 83.6392C231.441 82.5168 232.967 81.3942 234.493 80.2715C235.231 79.7285 235.969 79.1854 236.729 78.6258C242.46 74.403 248.159 70.1388 253.834 65.8399C259.114 61.8549 262.281 60.5101 268.895 61.442ZM264.158 83.2322C263.193 83.9783 262.228 84.7245 261.234 85.4933C253.352 91.5671 245.397 97.5121 237.311 103.312C232.66 106.652 228.052 110.043 223.479 113.49C215.741 119.322 207.943 125.069 200.136 130.808C196.368 133.579 192.604 136.354 188.84 139.129C184.308 142.469 179.775 145.808 175.239 149.143C168.224 154.303 161.219 159.474 154.26 164.708C146.538 170.516 138.76 176.245 130.976 181.968C127.208 184.739 123.444 187.514 119.679 190.288C118.189 191.386 116.699 192.484 115.209 193.582C112.109 195.866 109.011 198.15 105.913 200.436C105.129 201.013 104.346 201.591 103.54 202.186C102.005 203.318 100.47 204.45 98.9354 205.582C93.9539 209.256 88.9468 212.89 83.904 216.479C83.3605 216.902 82.8171 217.326 82.2571 217.763C82.2571 218.075 82.2571 218.388 82.2571 218.71C94.2172 220.126 105.764 221.363 115.887 213.913C119.149 211.213 122.324 208.437 125.447 205.577C128.966 202.459 132.766 199.79 136.614 197.098C137.995 196.111 139.374 195.123 140.752 194.133C141.75 193.419 141.75 193.419 142.768 192.69C146.752 189.819 150.7 186.899 154.646 183.975C159.313 180.532 161.604 179.365 167.523 179.867C170.317 181.324 171.831 182.388 172.86 185.429C173.416 188.561 173.533 190.455 172.286 193.445C169.5 197.112 166.037 199.615 162.372 202.368C161.613 202.948 160.854 203.528 160.072 204.126C156.618 206.761 153.142 209.367 149.659 211.964C149.129 212.359 148.599 212.754 148.053 213.162C146.65 214.204 145.24 215.238 143.831 216.271C143.208 216.764 142.585 217.256 141.943 217.763C141.943 218.075 141.943 218.388 141.943 218.71C222.918 218.71 303.892 218.71 387.32 218.71C384.302 215.692 381.726 213.179 378.401 210.661C377.612 210.061 376.822 209.461 376.009 208.842C374.749 207.894 374.749 207.894 373.464 206.927C372.143 205.926 372.143 205.926 370.794 204.904C364.399 200.072 357.955 195.308 351.488 190.573C345.752 186.363 340.091 182.062 334.443 177.735C329.073 173.622 323.694 169.546 318.16 165.656C311.749 161.15 305.544 156.386 299.324 151.621C291.496 145.633 283.587 139.757 275.61 133.969C274.241 132.95 272.895 131.9 271.569 130.825C270.908 130.295 270.246 129.764 269.565 129.218C268.98 128.734 268.394 128.25 267.791 127.751C266.104 126.635 266.104 126.635 264.174 126.974C262.008 127.865 260.363 128.948 258.488 130.354C257.766 130.892 257.043 131.43 256.299 131.984C255.531 132.563 254.764 133.143 253.973 133.74C253.179 134.33 252.384 134.921 251.565 135.529C247.66 138.435 243.792 141.38 239.973 144.399C239.307 144.919 238.64 145.438 237.954 145.974C236.708 146.949 235.472 147.937 234.247 148.939C230.005 152.245 226.93 153.21 221.525 153.34C218.268 152.037 218.268 152.037 215.841 149.55C214.75 146.028 214.241 142.648 215.638 139.169C216.935 136.986 218.149 135.962 220.211 134.495C220.916 133.987 221.62 133.478 222.346 132.954C223.111 132.412 223.875 131.871 224.663 131.313C226.293 130.137 227.921 128.961 229.548 127.782C230.402 127.165 231.256 126.548 232.135 125.912C237.499 121.987 242.755 117.917 248.022 113.863C249.566 112.678 251.117 111.501 252.673 110.332C254.329 109.08 255.953 107.786 257.567 106.48C261.483 104.442 264.576 104.07 268.895 105.022C272.009 106.587 274.603 108.637 277.303 110.825C278.892 112.054 280.48 113.283 282.07 114.511C282.872 115.142 283.675 115.773 284.501 116.423C288.198 119.3 291.99 122.043 295.777 124.799C303.041 130.133 310.211 135.583 317.367 141.06C323.524 145.764 329.743 150.375 335.995 154.952C341.729 159.161 347.389 163.462 353.036 167.788C358.406 171.9 363.785 175.977 369.319 179.867C375.73 184.373 381.936 189.137 388.155 193.902C395.99 199.896 403.881 205.822 411.907 211.559C413.847 213.026 413.847 213.026 415.577 214.652C421.388 219.884 427.17 219.375 434.69 219.066C436.469 219.027 436.469 219.027 438.284 218.988C441.193 218.921 444.099 218.828 447.006 218.71C444.647 216.274 442.282 214.112 439.542 212.115C438.835 211.598 438.128 211.08 437.399 210.546C436.642 209.997 435.885 209.447 435.105 208.881C433.475 207.689 431.845 206.498 430.216 205.306C429.384 204.699 428.552 204.093 427.695 203.468C423.859 200.666 420.038 197.845 416.216 195.025C414.719 193.922 413.223 192.819 411.727 191.717C410.985 191.17 410.243 190.623 409.478 190.06C407.191 188.376 404.903 186.693 402.615 185.011C394.98 179.395 387.364 173.755 379.789 168.057C372.681 162.716 365.515 157.453 358.352 152.186C353.836 148.865 349.325 145.538 344.812 142.212C341.028 139.423 337.243 136.636 333.455 133.851C325.819 128.235 318.204 122.595 310.629 116.897C304.3 112.142 297.926 107.449 291.547 102.761C288.332 100.398 285.123 98.0258 281.918 95.6483C281.106 95.0467 280.293 94.445 279.456 93.8252C277.902 92.6737 276.349 91.5207 274.797 90.3659C271.338 87.8071 267.913 85.349 264.158 83.2322ZM43.4137 237.658C43.4137 244.224 43.4137 250.789 43.4137 257.554C190.981 257.554 338.548 257.554 490.587 257.554C490.587 250.988 490.587 244.423 490.587 237.658C343.02 237.658 195.453 237.658 43.4137 237.658ZM69.9409 277.449C69.9409 339.039 69.9409 400.63 69.9409 464.087C71.8168 464.087 73.6926 464.087 75.6253 464.087C75.5466 462.504 75.5466 462.504 75.4662 460.889C75.2787 449.242 78.3933 442.369 85.7299 433.426C86.3557 432.658 86.3557 432.658 86.9941 431.875C87.4821 431.345 87.9701 430.815 88.4729 430.269C90.2941 427.352 90.1862 425.34 90.1781 421.911C90.1818 420.983 90.1818 420.983 90.1855 420.037C90.1902 417.967 90.1745 415.897 90.159 413.827C90.1582 412.343 90.1586 410.858 90.1603 409.373C90.1611 405.343 90.1443 401.313 90.1245 397.283C90.1068 393.072 90.1051 388.86 90.1017 384.648C90.0929 376.673 90.0695 368.697 90.041 360.722C90.0093 351.642 89.9936 342.562 89.9794 333.482C89.9496 314.804 89.8991 296.127 89.8363 277.449C83.2708 277.449 76.7054 277.449 69.9409 277.449ZM109.732 277.449C109.732 324.658 109.732 371.867 109.732 420.506C118.173 420.506 126.614 420.506 135.312 420.506C135.312 373.297 135.312 326.088 135.312 277.449C126.87 277.449 118.429 277.449 109.732 277.449ZM155.207 277.449C154.875 303.852 154.875 303.852 154.652 330.255C154.585 341.032 154.506 351.807 154.349 362.583C154.235 370.433 154.163 378.282 154.137 386.133C154.123 390.285 154.088 394.434 154.005 398.586C152.82 420.485 152.82 420.485 162.421 439.277C163.789 440.618 165.181 441.932 166.576 443.244C168.471 447.033 168.471 447.033 169.418 464.087C185.988 464.087 202.558 464.087 219.63 464.087C219.943 458.459 220.255 452.832 220.578 447.033C223.034 442.317 225.318 438.713 228.835 434.806C234.648 427.694 234.751 421.09 234.594 412.322C234.592 410.845 234.593 409.369 234.597 407.893C234.599 403.912 234.56 399.932 234.514 395.951C234.472 391.781 234.468 387.611 234.46 383.441C234.44 375.556 234.385 367.672 234.319 359.787C234.231 349.124 234.195 338.461 234.156 327.798C234.094 311.015 233.962 294.232 233.841 277.449C207.892 277.449 181.943 277.449 155.207 277.449ZM253.737 277.449C253.737 324.658 253.737 371.867 253.737 420.506C262.178 420.506 270.619 420.506 279.316 420.506C279.316 373.297 279.316 326.088 279.316 277.449C270.875 277.449 262.434 277.449 253.737 277.449ZM299.212 277.449C298.853 303.806 298.853 303.806 298.61 330.163C298.538 340.923 298.452 351.681 298.283 362.44C298.159 370.278 298.08 378.116 298.053 385.955C298.037 390.1 298 394.241 297.91 398.385C297.075 422.236 297.075 422.236 308.784 442.348C309.287 442.827 309.79 443.306 310.309 443.8C314.842 448.778 313.141 459.292 313.423 464.087C329.993 464.087 346.563 464.087 363.635 464.087C363.948 458.146 364.26 452.206 364.582 446.086C366.581 441.975 367.978 439.398 370.741 436.02C371.316 435.251 371.891 434.481 372.484 433.688C376.112 428.872 376.112 428.872 377.846 427.138C377.938 425.208 377.962 423.274 377.96 421.341C377.961 420.729 377.962 420.117 377.962 419.487C377.964 417.421 377.959 415.355 377.954 413.29C377.953 411.815 377.953 410.34 377.954 408.865C377.954 404.848 377.949 400.832 377.942 396.815C377.936 392.623 377.936 388.43 377.934 384.237C377.932 376.292 377.924 368.346 377.914 360.401C377.902 349.668 377.897 338.936 377.891 328.203C377.882 311.285 377.863 294.367 377.846 277.449C351.897 277.449 325.947 277.449 299.212 277.449ZM397.741 277.449C397.741 324.658 397.741 371.867 397.741 420.506C406.183 420.506 414.624 420.506 423.321 420.506C423.321 373.297 423.321 326.088 423.321 277.449C414.88 277.449 406.439 277.449 397.741 277.449ZM443.217 277.449C442.93 296.778 442.711 316.107 442.579 335.438C442.515 344.416 442.429 353.392 442.288 362.369C442.164 370.201 442.085 378.032 442.058 385.866C442.042 390.007 442.005 394.145 441.914 398.285C441.22 422.427 441.22 422.427 452.788 443.091C453.292 443.609 453.795 444.128 454.314 444.662C457.195 448.028 456.789 452.48 457.013 456.685C457.054 457.395 457.095 458.105 457.137 458.837C457.237 460.587 457.333 462.337 457.428 464.087C458.991 464.087 460.554 464.087 462.165 464.087C462.165 402.496 462.165 340.906 462.165 277.449C455.912 277.449 449.659 277.449 443.217 277.449ZM96.977 449.802C94.908 454.602 94.908 454.602 95.5207 464.087C113.341 464.087 131.162 464.087 149.523 464.087C149.624 451.865 149.624 451.865 143.253 442.857C138.075 438.274 131.453 438.541 124.878 438.744C122.516 438.803 120.186 438.725 117.825 438.635C107.645 438.543 102.303 440.972 96.977 449.802ZM241.42 449.876C240.795 450.814 240.17 451.752 239.526 452.718C239.526 456.47 239.526 460.221 239.526 464.087C257.346 464.087 275.167 464.087 293.527 464.087C293.527 454.179 293.143 450.132 287.267 443.088C283.249 439.189 278.861 438.827 273.45 438.734C271.892 438.76 270.335 438.81 268.778 438.881C266.4 438.981 264.044 438.959 261.664 438.921C251.647 438.987 246.433 440.511 241.42 449.876ZM384.765 448.97C382.938 453.86 382.938 453.86 383.53 464.087C401.351 464.087 419.172 464.087 437.532 464.087C437.532 454.2 437.171 450.13 431.297 443.101C426.658 438.613 421.009 438.581 414.845 438.635C413.65 438.679 413.65 438.679 412.431 438.725C409.991 438.803 407.581 438.745 405.141 438.672C395.103 438.638 390.177 440.399 384.765 448.97ZM43.4137 483.982C43.4137 497.738 43.4137 511.495 43.4137 525.668C85.933 525.668 128.452 525.668 172.26 525.668C172.26 511.911 172.26 498.155 172.26 483.982C129.741 483.982 87.2215 483.982 43.4137 483.982ZM192.156 483.982C192.156 487.734 192.156 491.485 192.156 495.351C241.24 495.351 290.325 495.351 340.897 495.351C340.897 491.599 340.897 487.847 340.897 483.982C291.813 483.982 242.728 483.982 192.156 483.982ZM360.793 483.982C360.793 497.738 360.793 511.495 360.793 525.668C403 525.668 445.206 525.668 488.692 525.668C488.692 511.911 488.692 498.155 488.692 483.982C446.485 483.982 404.279 483.982 360.793 483.982ZM192.156 515.246C192.156 518.685 192.156 522.124 192.156 525.668C241.24 525.668 290.325 525.668 340.897 525.668C340.897 522.229 340.897 518.79 340.897 515.246C291.813 515.246 242.728 515.246 192.156 515.246Z" fill="#1E3238"/>
<path d="M278.785 158.017C285.237 161.846 290.205 167.057 292.581 174.242C294.57 182.689 293.573 189.15 289.739 196.92C285.37 203.545 280.081 206.771 272.686 209.236C262.827 210.134 255.93 209.04 248.028 203.041C242.71 198.297 240.069 192.626 239.168 185.592C238.842 177.401 240.906 171.201 245.389 164.412C254.151 156.04 267.472 152.89 278.785 158.017ZM260.844 177.557C259.12 179.894 259.12 179.894 259.482 183.242C260.401 187.039 260.401 187.039 263.212 189.341C266.342 189.74 268.24 189.66 271.087 188.275C273.332 185.781 273.633 184.153 273.633 180.814C272.363 177.963 272.363 177.963 269.844 176.077C266.063 175.47 264.109 175.517 260.844 177.557Z" fill="#1E3238"/>
<path d="M198.788 157.129C202.144 159.61 203.323 161.159 204.472 165.182C204.472 169.746 203.061 171.698 200.031 174.952C196.814 176.604 193.757 176.722 190.261 176.077C187.599 174.378 185.989 173.217 184.577 170.393C184.251 165.421 184.039 162.039 187.419 158.076C191.317 155.695 194.449 155.967 198.788 157.129Z" fill="#1E3238"/>
</svg>
