<svg width="590" height="560" viewBox="0 0 590 560" fill="none" xmlns="http://www.w3.org/2000/svg">
<g clip-path="url(#clip0_31_190)">
<path d="M295 508C434.728 508 548 394.728 548 255C548 115.272 434.728 2 295 2C155.272 2 42 115.272 42 255C42 394.728 155.272 508 295 508Z" fill="#FFBD3F"/>
<path fill-rule="evenodd" clip-rule="evenodd" d="M108.522 397.24V266.008C200.622 266.008 245.228 228.208 247.36 227.97C250.355 228.77 251.638 230.221 253.871 231.92C256.109 233.56 258.484 235.004 260.971 236.236C297.265 256.461 342.582 266.959 386.203 266.959V405.8C386.203 427.881 378.966 449.467 370.087 464.808C364.265 474.868 352.487 492.008 343.96 498.591C333.115 506.96 324.184 515.806 309.175 522.766C299.291 527.437 288.975 531.135 278.375 533.809C256.956 539.17 239.475 539.283 218.061 533.999C208.761 531.704 194.251 526.655 185.861 522.458L169.197 512.496C165.222 509.853 163.087 508.211 159.325 505.252C142.786 492.243 130.025 475.233 120.558 455.579C113.124 440.141 108.526 419.742 108.526 397.241L108.522 397.24ZM241.706 70.112C220.176 70.9705 199.246 77.4499 180.996 88.9058C162.747 100.362 147.814 116.395 137.683 135.412C129.904 149.888 122.783 168.012 122.783 188.032V246.04C114.847 246.04 110.877 247.074 102.791 246.969C95.072 246.869 89.5 248.251 89.5 255.55V408.65C89.5 462.659 132.608 521.939 181.606 541.921C209.508 553.3 220.3 557 253.066 557C264.608 557 277.415 554.533 286.899 551.844C310.532 545.144 332.105 534.522 350.729 518.677C356.056 514.145 361.461 509.601 365.679 504.147C370.179 498.324 371.213 499.104 378.791 487.778C384.408 479.378 388.659 472.546 392.883 462.878C401.152 443.957 406.169 424.478 406.169 397.236V259.352C406.169 243.965 389.718 246.989 372.885 246.989C372.885 212.589 375.985 177.702 362.985 146.582C354.967 127.39 338.645 106.417 322.492 94.832C301.921 79.8507 277.396 71.2536 251.974 70.112H241.706ZM185.549 235.578C196.549 233.014 208.709 227.311 218.198 222.578C223.203 220.151 227.999 217.312 232.534 214.091C234.796 212.587 236.959 210.938 239.008 209.154C245.454 203.303 249.457 203.838 255.795 209.072C269.106 220.061 292.772 231.753 309.172 235.572C309.172 221.944 309.107 208.3 309.179 194.672C309.499 133.488 228.204 109.216 194.851 162.138C182.613 181.556 185.551 205.138 185.551 235.569L185.549 235.578ZM165.578 240.332C165.578 219.471 163.884 186.572 170.458 168.185C174.332 157.226 180.497 147.219 188.541 138.829C196.585 130.439 206.324 123.859 217.11 119.528C227.896 115.196 239.481 113.212 251.094 113.708C262.707 114.204 274.08 117.168 284.458 122.403C288.773 124.609 292.909 127.15 296.826 130.003C300.387 132.746 303.702 135.795 306.733 139.114C334.714 172.405 329.142 192.377 329.142 241.28C332.17 241.28 351.289 244.303 352.916 245.08C352.916 188.599 359.98 147.804 308.499 108.815C267.683 77.902 208.169 85.247 172.47 120.74C136.771 156.233 141.8 195.607 141.8 244.136C148.227 244.136 159.9 241.655 165.578 240.332Z" fill="#1E3238"/>
<path fill-rule="evenodd" clip-rule="evenodd" d="M150.363 375.368C150.363 390.845 151.571 402.445 155.312 416.068C161.978 440.329 174.678 465.068 194.494 480.541C199.145 484.171 201.451 486.634 209.322 486.634H287.299C297.015 486.634 314.877 469.934 314.877 461.909C314.877 456.49 309.877 452.399 304.416 452.399C298.131 452.399 290.716 466.663 285.396 466.663H209.323C206.237 466.663 196.03 454.975 194.088 452.419C160.326 407.967 161.088 335.934 202.427 294.302C205.068 291.643 207.453 287.884 212.175 287.884H284.448C291.767 287.884 309.807 315.137 313.617 323.379C320.323 337.887 325.338 359.36 325.338 376.322C325.338 385.222 319.36 404.851 333.897 404.851C335.727 404.85 337.519 404.334 339.069 403.361C340.619 402.388 341.863 400.998 342.66 399.351C345.05 393.851 344.36 377.551 344.36 370.618C344.36 347.293 335.879 322.641 327.293 307.805C324.646 303.231 322.58 299.671 319.632 295.495C311.653 284.195 309.644 283.127 300.372 274.816C296.728 271.55 292.797 267.916 286.351 267.916H208.369C194.241 267.916 172.418 298.741 166.839 309.116C158.095 325.379 150.363 350.765 150.363 375.368Z" fill="#1E3238"/>
<path fill-rule="evenodd" clip-rule="evenodd" d="M238.801 321.164V326.874C226.701 326.874 217.879 337.474 217.879 349.697C217.879 362.979 215.754 376.479 230.045 384.128C236.977 387.838 248.433 386.784 258.77 386.784C259.701 390.779 262.123 408.656 255.917 408.656C229.737 408.656 241.49 409.299 236.348 399.698C231.516 390.675 217.879 393.998 217.879 404.853C217.879 417.073 226.698 427.676 238.801 427.676C238.801 432.376 238.401 442.891 247.359 442.891C259.172 442.891 257.82 434.659 257.82 427.676C269.64 427.676 278.741 417.694 278.741 405.804C278.741 386.839 281.752 366.584 251.169 366.809C235.616 366.922 237.85 370.244 237.85 348.746C237.85 344.205 244.216 345.893 255.918 345.893C262.133 345.893 256.644 358.256 269.232 358.256C285.954 358.256 279.613 326.874 257.82 326.874C257.82 320.635 258.979 311.659 248.31 311.659C247.058 311.644 245.815 311.88 244.655 312.353C243.495 312.825 242.441 313.525 241.555 314.41C240.669 315.296 239.969 316.349 239.496 317.509C239.024 318.669 238.787 319.912 238.801 321.164Z" fill="#1E3238"/>
<path fill-rule="evenodd" clip-rule="evenodd" d="M314.878 429.572C314.878 439.818 324.716 443.562 331.045 438.136C337.338 432.736 333.985 421.014 324.387 421.014C320.067 421.014 314.878 425.532 314.878 429.572Z" fill="#1E3238"/>
</g>
<defs>
<clipPath id="clip0_31_190">
<rect width="590" height="560" fill="white"/>
</clipPath>
</defs>
</svg>
